<svg xmlns="http://www.w3.org/2000/svg" width="160" height="121" fill="none"><path fill="#000" d="M45 79.367c0-.79.133-1.528.397-2.213a5.47 5.47 0 0 1 1.113-1.79 5.124 5.124 0 0 1 1.712-1.196 5.406 5.406 0 0 1 2.183-.434c.6 0 1.146.089 1.637.265a4.48 4.48 0 0 1 1.426.868v-.92h2.692v10.841h-2.692v-.921c-.46.402-.935.692-1.426.868a4.811 4.811 0 0 1-1.637.265 5.41 5.41 0 0 1-2.183-.434 5.123 5.123 0 0 1-1.712-1.197 5.471 5.471 0 0 1-1.113-1.789A6.079 6.079 0 0 1 45 79.367zm5.755 3.102c.212 0 .434-.022.667-.068a3.12 3.12 0 0 0 .705-.233 3.3 3.3 0 0 0 .694-.44c.227-.183.442-.41.647-.677v-3.367a3.625 3.625 0 0 0-1.34-1.112 2.966 2.966 0 0 0-.706-.238 3.467 3.467 0 0 0-.667-.07c-.417 0-.808.079-1.171.234a2.86 2.86 0 0 0-.949.651 3.035 3.035 0 0 0-.63.985 3.275 3.275 0 0 0-.228 1.233c0 .445.076.856.227 1.234.152.377.363.706.631.984.269.28.585.496.949.652.364.155.754.232 1.17.232zm12.134-6.058c-1.276.01-2.384.897-2.384 2.215v6.162h-2.692V78.7c.015-2.539 2.216-4.931 5.037-4.966h.076c2.82.035 5.022 2.427 5.037 4.966v6.088H65.27v-6.162c0-1.318-1.108-2.206-2.384-2.215h.002zm6.348 2.956c0-.79.132-1.528.397-2.213a5.47 5.47 0 0 1 1.113-1.79 5.123 5.123 0 0 1 1.712-1.196 5.406 5.406 0 0 1 2.183-.434c.6 0 1.148.089 1.643.265a4.42 4.42 0 0 1 1.42.858v-4.162h2.692v14.093h-2.692v-.91c-.452.402-.926.69-1.42.863a4.95 4.95 0 0 1-1.643.259 5.41 5.41 0 0 1-2.183-.434 5.123 5.123 0 0 1-1.712-1.197 5.467 5.467 0 0 1-1.113-1.789 6.075 6.075 0 0 1-.397-2.213zm5.755 3.102c.212 0 .434-.022.667-.068.233-.046.468-.124.705-.233a3.3 3.3 0 0 0 .694-.44 3.97 3.97 0 0 0 .647-.677v-3.367a3.625 3.625 0 0 0-1.34-1.112 2.969 2.969 0 0 0-.706-.238 3.47 3.47 0 0 0-.667-.07c-.417 0-.808.079-1.171.234a2.86 2.86 0 0 0-.949.651 3.034 3.034 0 0 0-.63.985 3.27 3.27 0 0 0-.228 1.233c0 .445.076.856.227 1.234.152.377.362.706.631.984.269.28.585.496.949.652.364.155.754.232 1.17.232zm18.01 0c.404 0 .783-.075 1.14-.227.351-.148.669-.366.933-.64a3.02 3.02 0 0 0 .625-.98c.152-.378.228-.796.228-1.255 0-.452-.078-.866-.233-1.244a3.046 3.046 0 0 0-.636-.98 2.947 2.947 0 0 0-.933-.645 2.762 2.762 0 0 0-1.123-.233 2.87 2.87 0 0 0-2.072.879 3.094 3.094 0 0 0-.63.979 3.237 3.237 0 0 0-.234 1.244c0 .459.076.877.228 1.255.152.377.36.704.625.98.264.274.582.492.933.64.357.151.74.227 1.15.227zm0 2.531a5.81 5.81 0 0 1-2.214-.424 5.625 5.625 0 0 1-1.818-1.18 5.578 5.578 0 0 1-1.23-1.79 5.54 5.54 0 0 1-.45-2.239c0-.783.15-1.517.45-2.202a5.733 5.733 0 0 1 1.225-1.79 5.724 5.724 0 0 1 1.817-1.201 5.668 5.668 0 0 1 2.22-.44 5.737 5.737 0 0 1 4.027 1.641 5.697 5.697 0 0 1 1.225 1.79c.3.685.45 1.419.45 2.202 0 .805-.15 1.551-.45 2.24a5.578 5.578 0 0 1-3.041 2.97 5.77 5.77 0 0 1-2.21.423zm8.255-11.903c-.218 0-.425-.042-.619-.128a1.653 1.653 0 0 1-.859-.857 1.554 1.554 0 0 1 0-1.24 1.639 1.639 0 0 1 .859-.865c.195-.085.406-.128.619-.127.218 0 .426.042.623.127.193.082.368.2.517.348.147.148.265.323.347.516a1.56 1.56 0 0 1 0 1.24 1.646 1.646 0 0 1-.864.858 1.558 1.558 0 0 1-.623.128zm-1.346.85h2.692v10.841h-2.692V73.946zm3.929 5.42c0-.79.133-1.528.398-2.213a5.483 5.483 0 0 1 1.112-1.79 5.128 5.128 0 0 1 1.712-1.196 5.406 5.406 0 0 1 2.183-.434c.601 0 1.148.089 1.643.265a4.42 4.42 0 0 1 1.42.858v-4.162H115v14.093h-2.692v-.91c-.452.402-.926.69-1.42.863a4.953 4.953 0 0 1-1.643.259 5.404 5.404 0 0 1-2.183-.434 5.128 5.128 0 0 1-1.712-1.197 5.482 5.482 0 0 1-1.112-1.789 6.077 6.077 0 0 1-.398-2.213zm5.755 3.102c.212 0 .435-.022.668-.068.233-.046.468-.124.704-.233.237-.11.468-.256.695-.44.226-.183.441-.41.646-.677v-3.367a3.646 3.646 0 0 0-1.341-1.112 2.951 2.951 0 0 0-.704-.238 3.469 3.469 0 0 0-.668-.07c-.417 0-.807.079-1.171.234a2.86 2.86 0 0 0-.949.651 3.045 3.045 0 0 0-.63.985 3.273 3.273 0 0 0-.228 1.233c0 .445.076.856.228 1.234.152.377.362.706.63.984.269.28.585.496.949.652.364.155.754.232 1.171.232zm-22.561-6.09c-1.804 0-2.6.93-2.6 2.247v6.162h-2.692V78.7c.015-2.539 1.483-5.034 5.292-5.034"/><path fill="#3DDC84" d="M97.179 35.89l5.833-10.085a1.21 1.21 0 0 0-1.359-1.767c-.309.08-.574.278-.738.551l-5.9 10.203a36.563 36.563 0 0 0-29.962 0l-5.9-10.203a1.212 1.212 0 0 0-2.097 1.216l5.833 10.085C52.829 41.33 45.998 51.448 45 63.39h70c-.998-11.942-7.845-22.06-17.821-27.5zM63.903 53.424a2.91 2.91 0 0 1-2.852-3.472 2.905 2.905 0 0 1 2.285-2.283 2.91 2.91 0 0 1 2.986 1.236 2.904 2.904 0 0 1-2.419 4.52zm32.227 0a2.91 2.91 0 0 1-2.686-1.793 2.903 2.903 0 0 1 2.12-3.962 2.911 2.911 0 0 1 2.985 1.236 2.903 2.903 0 0 1-2.419 4.52z"/></svg>