<svg xmlns="http://www.w3.org/2000/svg" width="160" height="121" fill="none"><g fill-rule="evenodd" clip-path="url(#a)" clip-rule="evenodd"><path fill="#B52E31" d="M55.503 68.163V53.666h1.882l8.949 11.666V53.666h1.79v14.497H66.24L57.292 56.38v11.782h-1.79zm27.193-.575a10.964 10.964 0 0 1-3.812.667c-5.299 0-7.948-2.508-7.948-7.548 0-4.763 2.556-7.157 7.67-7.157 1.464 0 2.835.208 4.09.599v1.61a10.732 10.732 0 0 0-3.881-.713c-3.998 0-5.997 1.887-5.997 5.615 0 4.027 1.976 6.03 5.904 6.03.627 0 1.324-.093 2.091-.254v-4.855h1.883v6.006zm3.022-5.017v-8.905H87.6v8.905c0 2.785 1.395 4.188 4.207 4.188 2.789 0 4.207-1.403 4.207-4.188v-8.905h1.882v8.905c0 3.797-2.022 5.707-6.089 5.707s-6.09-1.91-6.09-5.707zm17.431-8.905v12.978h7.67v1.519h-9.552V53.666h1.882zm10.389 14.497h-1.975l7.275-16.407 7.274 16.407h-2.091l-1.883-4.556h-4.834l.511-1.52h3.696l-2.743-6.558-5.23 12.634zm14.597 0V53.666h6.252c2.789 0 4.183 1.15 4.183 3.474 0 1.887-1.371 3.29-4.09 4.188l5.02 6.835h-2.487l-4.648-6.512v-1.22c2.789-.437 4.206-1.496 4.206-3.199 0-1.334-.767-2.002-2.324-2.002h-4.183v12.933h-1.929z"/><path fill="#E23237" d="M20.5 49.8l14.991-5.293 15.386 5.2-2.486 19.63-12.9 7.064-12.69-6.973L20.5 49.8z"/><path fill="#B52E31" d="M50.877 49.708l-15.386-5.201V76.4l12.9-7.064 2.486-19.63z"/><path fill="#fff" d="M35.514 48.235l-9.343 20.572 3.486-.069 1.883-4.648h8.344l2.045 4.694 3.324.07-9.739-20.62zm.024 6.604l3.16 6.535h-5.926l2.766-6.535z"/></g><defs><clipPath id="a"><path fill="#fff" d="M0 0h119v32H0z" transform="translate(20.5 44.5)"/></clipPath></defs></svg>