<svg xmlns="http://www.w3.org/2000/svg" width="258" height="49" fill="none"><g fill="#B4BAC1" clip-path="url(#a)"><path d="M0 .7h18.9c3.6 0 6.3.9 8.3 2.4 2.2 1.8 3.4 4.4 3.4 7.6 0 3.7-1.5 6-4.5 7.4v.2c4 1.3 6.3 4.9 6.3 9.2 0 4.1-1.6 7.3-4.2 9.3-2.2 1.6-5 2.3-8.8 2.3H0V.7zm17 15c2 0 3.5-1.1 3.5-3.4 0-2.2-1.5-3.3-3.6-3.3h-6.5v6.6H17v.1zm.9 14.9c2.3 0 4-1.4 4-3.9 0-2.7-1.8-3.9-4-3.9h-7.4v7.9h7.4v-.1zM34.1.7H44v38.5h-9.9V.7zM46 25.5C46 16.8 51.6 11 60.3 11c8.7 0 14.2 5.9 14.2 14.5C74.5 34.2 69 40 60.3 40S46 34.2 46 25.5zm18.6 0c0-4.8-1.5-7.8-4.5-7.8s-4.4 3-4.4 7.8 1.4 7.9 4.4 7.9c3-.1 4.5-3.1 4.5-7.9zm11 0c0-8.7 5.6-14.5 14.3-14.5 8.7 0 14.1 5.8 14.1 14.5S98.5 40 89.8 40c-8.6 0-14.2-5.8-14.2-14.5zm18.6 0c0-4.8-1.5-7.8-4.5-7.8s-4.4 3-4.4 7.8 1.4 7.9 4.4 7.9c3-.1 4.5-3.1 4.5-7.9zM106 11.698h9.2v4.1h.2c1.8-3.2 4.3-4.9 8.3-4.9 3.5 0 6.1 1.7 7.4 4.7h.2c2.2-3.6 5.1-4.7 8.5-4.7 6.4 0 9.1 4.7 9.1 11v17.2h-9.6v-15.5c0-2.8-.9-4.6-3.3-4.6s-3.6 2.2-3.6 5.2v14.9h-9.6v-15.5c0-2.8-.9-4.6-3.3-4.6s-3.6 2.2-3.6 5.2v14.9H106v-27.4zM161 35.5h-.1v3.6h-9.2V.7h9.6v13.8h.2c1.8-2.4 4.3-3.7 7.8-3.7 6.9 0 10.9 6.2 10.9 14.5 0 9.3-4.3 14.7-11.5 14.7-3 0-6.1-1.4-7.7-4.5zm9.3-10.3c0-4.4-1.6-7.3-4.5-7.3-3 0-4.8 2.9-4.8 7.3s1.9 7.3 4.8 7.3 4.5-2.8 4.5-7.3zm11 .198c0-8.6 5.7-14.5 13.9-14.5 4.1 0 7.2 1.3 9.6 3.6 3.2 3.1 4.6 7.9 4.5 13.5h-18.4c.4 3.4 2 5.2 4.9 5.2 1.7 0 3.2-.8 3.8-2.6h9.3c-1.6 6.3-6.5 9.4-13.4 9.4-8.5-.1-14.2-5.9-14.2-14.6zm9.6-2.9h8.8c-.2-3.3-2-5-4.3-5-2.7-.1-4.2 1.8-4.5 5zm29.3-6.098h.2c2-3.8 4.6-5.3 7.9-5.3.8 0 1.3.1 1.6.3v8.4h-.2c-5.7-1-9 1.7-9 7.9v11.5H211V11.7h9.2v4.7zm10.7 22.799h9.3c.4 1.2 1.6 2.3 3.9 2.3 3.1 0 4.2-1.9 4.2-4.8v-2h-.2c-1.5 1.8-3.6 3.1-6.6 3.1-5.9 0-11.1-4.4-11.1-13 0-7.9 4.2-14 10.6-14 3.7 0 5.9 1.5 7.4 3.8h.2v-3h9.2v23.8c0 4.4-1.5 7.8-3.8 9.8-2.4 2.1-5.8 3-9.7 3-7.4.1-12.5-2.9-13.4-9zm17.8-14.8c0-3.4-1.6-6.2-4.4-6.2-2.7 0-4.4 2.4-4.4 6.2 0 3.7 1.7 6.3 4.4 6.3s4.4-2.7 4.4-6.3z"/></g><defs><clipPath id="a"><path fill="#fff" d="M0 0h257.8v47.6H0z" transform="translate(0 .7)"/></clipPath></defs></svg>