<svg xmlns="http://www.w3.org/2000/svg" width="235" height="51" fill="none"><g clip-path="url(#a)"><path fill="#B4BAC1" fill-rule="evenodd" d="M231.119 48.279v-9.115l-3.975 9.114h-.594l-3.956-9.114v9.114h-1.453V37.206h2.083l3.623 8.334 3.642-8.334h2.084v11.072l-1.454.002zm-14.875-5.41c0-2.589-1.682-4.5-4.29-4.5-2.626 0-4.289 1.911-4.289 4.5 0 2.574 1.663 4.5 4.289 4.5 2.61 0 4.29-1.926 4.29-4.5zm-10.084 0c0-3.267 2.327-5.726 5.794-5.726 3.449 0 5.796 2.457 5.796 5.727 0 3.271-2.347 5.728-5.796 5.728-3.467 0-5.796-2.457-5.796-5.728h.002zm-13.129 0c0-3.401 2.642-5.726 6.005-5.726 2.064 0 3.501.946 4.428 2.19l-1.224.649a3.987 3.987 0 0 0-1.409-1.183 4.023 4.023 0 0 0-1.795-.428c-2.556 0-4.5 1.86-4.5 4.5 0 2.622 1.944 4.498 4.5 4.498 1.33 0 2.538-.664 3.204-1.61l1.242.648c-.981 1.26-2.382 2.191-4.446 2.191-3.363 0-6.005-2.325-6.005-5.728zm-4.689 3.79c.005-.445.185-.87.502-1.184a1.719 1.719 0 0 1 1.195-.495c.448.004.877.182 1.194.496.317.314.497.739.502 1.183a1.692 1.692 0 0 1-.502 1.183 1.718 1.718 0 0 1-1.194.495 1.72 1.72 0 0 1-1.195-.495 1.692 1.692 0 0 1-.502-1.183zm-2.913.22s-.941.378-1.776.378c-2.014 0-3.377-.868-4.092-2.602-.716-1.734-1.072-4.571-1.072-8.514V15.737h5.958V14.47h-5.982V.582h-.702c0 1.132-4.284 13.832-11.855 13.884h-3.63l.003 1.266h4.288v18.123c0 2.891.358 5.28 1.073 7.174.714 1.892 1.694 3.401 2.939 4.532a10.767 10.767 0 0 0 4.371 2.405c1.719.48 3.498.718 5.284.709 2.281 0 4.124-.329 5.534-.984l-.342-.813h.001zm-30.009-2.267c-1.564 1.656-3.881 2.482-6.952 2.482h-7.545l17.474-30.653v-1.97h-28.278v9.456h.796c.264-2.732 1.27-4.78 3.018-6.147 1.746-1.364 3.706-2.048 5.877-2.048h6.831l-17.951 30.89v1.731h30.501V38.032h-.792c-.427 2.732-1.42 4.925-2.981 6.58h.002zm-80.44-10.44c0 2.155-.054 4.044-.159 5.672-.108 1.63-.345 2.995-.716 4.099-.37 1.103-.927 1.928-1.667 2.482-.743.552-1.746.827-3.019.827-1.27 0-2.277-.275-3.018-.829-.742-.55-1.298-1.377-1.669-2.482-.37-1.102-.608-2.468-.714-4.097-.108-1.628-.159-3.517-.159-5.673v-6.146c0-2.102.052-3.993.159-5.675.106-1.679.343-3.084.714-4.214.371-1.13.927-1.997 1.669-2.602.741-.604 1.746-.905 3.018-.905 1.271 0 2.276.303 3.019.905.74.605 1.296 1.471 1.667 2.602.37 1.13.608 2.535.716 4.214.105 1.682.159 3.573.159 5.675v6.146zm7.902-15.406c-1.457-1.655-3.309-2.995-5.559-4.018-2.252-1.027-4.885-1.537-7.904-1.537-3.018 0-5.652.51-7.902 1.535-2.253 1.025-4.105 2.365-5.562 4.018a16.908 16.908 0 0 0-3.295 5.675 19.574 19.574 0 0 0 0 13.002 16.907 16.907 0 0 0 3.295 5.673c1.457 1.656 3.309 2.995 5.562 4.018 2.25 1.027 4.884 1.538 7.902 1.538 3.019 0 5.652-.511 7.902-1.536s4.104-2.364 5.562-4.018a16.95 16.95 0 0 0 3.296-5.675 19.625 19.625 0 0 0 1.113-6.5c0-2.207-.371-4.375-1.113-6.502a16.95 16.95 0 0 0-3.297-5.673zm31.033 15.405c0 2.156-.054 4.045-.158 5.673-.108 1.63-.346 2.995-.715 4.099-.372 1.103-.927 1.928-1.668 2.482-.744.552-1.748.827-3.019.827-1.271 0-2.277-.275-3.018-.829-.742-.55-1.298-1.377-1.669-2.482-.371-1.102-.608-2.468-.715-4.097a88.604 88.604 0 0 1-.158-5.673v-6.146c0-2.102.052-3.993.158-5.675.107-1.679.344-3.084.715-4.214.371-1.13.927-1.997 1.669-2.602.741-.604 1.746-.905 3.018-.905 1.271 0 2.275.303 3.019.905.741.605 1.296 1.471 1.668 2.602.369 1.13.607 2.535.715 4.214.104 1.682.158 3.573.158 5.675v6.146zm7.902-15.405c-1.456-1.655-3.308-2.995-5.558-4.018-2.252-1.027-4.885-1.537-7.904-1.537-3.018 0-5.654.51-7.904 1.535s-4.104 2.365-5.56 4.018a16.896 16.896 0 0 0-3.296 5.675 19.596 19.596 0 0 0 0 13.002 16.898 16.898 0 0 0 3.296 5.673c1.456 1.656 3.309 2.995 5.56 4.018 2.25 1.027 4.886 1.538 7.902 1.538 3.021 0 5.652-.511 7.906-1.536 2.25-1.025 4.102-2.364 5.558-4.018a16.923 16.923 0 0 0 3.298-5.675 19.614 19.614 0 0 0 1.112-6.5c0-2.207-.37-4.375-1.112-6.502a16.95 16.95 0 0 0-3.298-5.673zm-89.84 25.757c-1.346 1.982-3.488 2.971-6.422 2.971-.963 0-1.744-.094-2.345-.285a2.479 2.479 0 0 1-1.406-1.11c-.338-.547-.554-1.313-.65-2.29-.097-.979-.144-2.28-.144-3.902V1.462h1.73c2.311 0 4.068.263 5.269.788 1.202.525 2.142 1.409 2.815 2.648a9.28 9.28 0 0 1 1.01 2.864c.192 1.05.288 2.317.288 3.795 0 2.146-.278 3.996-.828 5.548-.418 1.165-.947 2.08-1.593 2.747a3.149 3.149 0 0 1-.558.49l-.038.026c-.029.021-.056.046-.085.066a4.99 4.99 0 0 1-.565.327 6.066 6.066 0 0 1-.283.139c-1.5.69-3.133.755-3.71.755v.856s3.095-.147 5.392 1.21c.144.086.273.166.385.243.025.018.054.03.079.048a7.143 7.143 0 0 1 2.381 2.936c.866 2.102 1.3 4.796 1.3 8.09 0 4.344-.675 7.505-2.021 9.485zm4.884-21.307c-1.868-.53-2.876-.634-3.454-.754-.576-.12-.312-.037-.961-.157-.648-.12-2.177-.296-3.426-.439 3.27-.143 4.632-.454 6.651-.93 2.022-.477 3.777-1.218 5.269-2.22a8.278 8.278 0 0 0 2.743-3.007 8.157 8.157 0 0 0 1.008-3.938v-.032c-.007-2.282-.956-4.318-2.85-6.102-1.9-1.789-4.463-3.04-7.685-3.757a39.937 39.937 0 0 0-3.174-.609 48.213 48.213 0 0 0-3.607-.393C25.945.777 24.513.705 23.08.664c-.996-.03-1.992-.05-2.988-.06H.8v.714c1.634.146 2.826.35 3.571.61a3.774 3.774 0 0 1 1.841 1.397 6.77 6.77 0 0 1 .972 2.146c.218.813.326 1.934.326 3.365v30.21c0 .765-.023 1.41-.072 1.934-.04.455-.089.908-.144 1.361l-.144 1.143a5.337 5.337 0 0 1-.938 2.15 4.449 4.449 0 0 1-1.913 1.43c-.745.288-1.912.479-3.5.573v.716h26.272c3.414 0 5.209-.309 7.952-.928 2.742-.621 5.062-1.516 6.963-2.686 1.899-1.17 3.355-2.59 4.366-4.26 1.008-1.67 1.516-3.554 1.516-5.656 0-2.72-.965-5.095-2.887-7.123-1.926-2.029-4.657-3.673-8.118-4.484" clip-rule="evenodd"/></g><defs><clipPath id="a"><path fill="#fff" d="M0 0h234v50H0z" transform="translate(.8 .5)"/></clipPath></defs></svg>