<svg xmlns="http://www.w3.org/2000/svg" width="100" height="100" fill="none" viewBox="0 0 100 100"><path fill="#132234" d="M74.5 15.9c0 1.7-1.4 3-3 3-1.7 0-3-1.4-3-3 0-1.7 1.4-3 3-3s3 1.4 3 3zm-8 0c0 1.7-1.4 3-3 3-1.7 0-3-1.4-3-3 0-1.7 1.4-3 3-3s3 1.4 3 3zm16.9 0c0 1.7-1.3 3-3 3s-3-1.4-3-3c0-1.7 1.4-3 3-3s3 1.4 3 3zm10.9 0c0 1.7-1.4 3-3 3-1.7 0-3-1.4-3-3 0-1.7 1.4-3 3-3s3 1.4 3 3zm-40 2.5H40.4c-1.4 0-2.5-1.1-2.5-2.5s1.1-2.5 2.5-2.5h13.9c1.4 0 2.5 1.1 2.5 2.5s-1.1 2.5-2.5 2.5zm20.2 64c0 1.7-1.4 3-3 3-1.7 0-3-1.4-3-3 0-1.7 1.4-3 3-3s3 1.4 3 3zm8.9 0c0 1.7-1.3 3-3 3s-3-1.4-3-3c0-1.7 1.4-3 3-3s3 1.4 3 3zm10.9 0c0 1.7-1.4 3-3 3-1.7 0-3-1.4-3-3 0-1.7 1.4-3 3-3s3 1.4 3 3zm-32.5 2.5H40.4c-1.4 0-2.5-1.1-2.5-2.5s1.1-2.5 2.5-2.5h21.4c1.4 0 2.5 1.1 2.5 2.5s-1.2 2.5-2.5 2.5zm21.6-36.6c0 1.7-1.3 3-3 3s-3-1.4-3-3c0-1.7 1.4-3 3-3 1.6-.1 3 1.3 3 3z"/><path fill="#F72B57" d="M21.2 48.3c0 1.7-1.3 3-3 3s-3-1.4-3-3c0-1.7 1.4-3 3-3 1.7-.1 3 1.3 3 3z"/><path fill="#132234" d="M94.3 48.3c0 1.7-1.4 3-3 3-1.7 0-3-1.4-3-3 0-1.7 1.4-3 3-3 1.6-.1 3 1.3 3 3zM71 50.8H40.4c-1.4 0-2.5-1.1-2.5-2.5s1.1-2.5 2.5-2.5H71c1.4 0 2.5 1.1 2.5 2.5 0 1.3-1.1 2.5-2.5 2.5zM18.2 91c-4.7 0-8.6-3.8-8.6-8.6 0-4.7 3.8-8.6 8.6-8.6s8.6 3.8 8.6 8.6-3.9 8.6-8.6 8.6zm0-12.1c-2 0-3.6 1.6-3.6 3.6s1.6 3.6 3.6 3.6 3.6-1.6 3.6-3.6-1.6-3.6-3.6-3.6zm0-53.8c-4.7 0-8.6-3.8-8.6-8.6S13.5 8 18.2 8c4.7 0 8.6 3.8 8.6 8.6s-3.9 8.5-8.6 8.5zm0-12.1c-2 0-3.6 1.6-3.6 3.6s1.6 3.6 3.6 3.6 3.6-1.6 3.6-3.6-1.6-3.6-3.6-3.6z"/><path fill="#F72B57" d="M18.2 61.9c-7.5 0-13.6-6.1-13.6-13.6s6.1-13.6 13.6-13.6 13.6 6.1 13.6 13.6-6.1 13.6-13.6 13.6zm0-22.3c-4.8 0-8.6 3.9-8.6 8.6 0 4.8 3.9 8.6 8.6 8.6 4.7 0 8.6-3.9 8.6-8.6.1-4.7-3.8-8.6-8.6-8.6z"/></svg>