<svg xmlns="http://www.w3.org/2000/svg" width="68" height="68" fill="none" viewBox="0 0 68 68"><path fill="#F72B57" d="M45.56 28.424a1.756 1.756 0 0 1-1.768-1.768v-6.868h-6.868c-.68 0-1.292-.408-1.564-1.02-.544-1.292.408-2.516 1.564-2.516h8.772c.884 0 1.632.748 1.632 1.632v8.772c0 1.02-.816 1.768-1.768 1.768zM16.456 41.616c0 1.156-.952 2.04-2.04 2.04a2.046 2.046 0 0 1-2.04-2.04c0-1.156.952-2.04 2.04-2.04s2.04.884 2.04 2.04zm0 8.024c0 1.156-.952 2.04-2.04 2.04a2.046 2.046 0 0 1-2.04-2.04c0-1.156.952-2.04 2.04-2.04s2.04.884 2.04 2.04zm8.024 0c0 1.156-.952 2.04-2.04 2.04a2.046 2.046 0 0 1-2.04-2.04c0-1.156.952-2.04 2.04-2.04 1.156 0 2.04.884 2.04 2.04z"/><path fill="#132234" d="M63.376 60.248H4.964a1.655 1.655 0 0 1-1.632-1.632V8.84c0-.884.748-1.632 1.632-1.632h58.14c.884 0 1.632.748 1.632 1.632v49.776c0 .884-.748 1.632-1.632 1.632h.272zM6.8 57.46h54.468V10.744H6.8V57.46z"/><path fill="#132234" d="M55.453 59.84c-.933 0-1.733-.737-1.733-1.609V9.153c0-.67.4-1.341 1-1.542 1.2-.47 2.4.402 2.4 1.475v49.212c0 .872-.734 1.542-1.667 1.542z"/></svg>