<svg xmlns="http://www.w3.org/2000/svg" width="160" height="120" fill="none"><path fill="url(#a)" d="M45.578 51.145c2.625 8.325 3.619 23.175 11.294 23.175a9.2 9.2 0 0 0 1.768-.176c-6.977-1.687-7.804-16.376-12.062-23.983-.334.315-.665.643-1 .984z"/><path fill="url(#b)" d="M46.578 50.161c4.258 7.607 5.084 22.296 12.062 23.983a10.784 10.784 0 0 0 1.648-.462c-6.263-3.183-7.994-17.446-12.83-24.313a30.65 30.65 0 0 0-.88.792z"/><path fill="#14559A" d="M52.712 45.637c-.583 0-1.175.06-1.768.176-1.553.304-3.131.998-4.722 2.047.435.445.848.954 1.237 1.509 1.618-1.392 3.225-2.421 4.826-3.04.6-.23 1.2-.404 1.8-.518a5.357 5.357 0 0 0-1.373-.174z"/><path fill="url(#c)" d="M65.177 70.749a28.455 28.455 0 0 0 1.925-1.75c-2.667-8.287-3.621-23.35-11.35-23.35a8.83 8.83 0 0 0-1.667.16c7.04 1.817 7.942 17.703 11.092 24.94z"/><path fill="#3092C4" d="M54.085 45.81a5.362 5.362 0 0 0-1.373-.173l3.04.011a8.75 8.75 0 0 0-1.667.162"/><path fill="#1969BC" d="M65.042 72.509a11.71 11.71 0 0 1-.872-.977c-1.3.955-2.595 1.679-3.882 2.15a5.835 5.835 0 0 0 2.68.638c1.445 0 2.587-.177 3.559-.66a6.78 6.78 0 0 1-1.485-1.151z"/><path fill="url(#d)" d="M52.284 46.331c6.306 3.42 6.854 18.911 11.886 25.201a21.5 21.5 0 0 0 1.005-.783c-3.15-7.237-4.05-23.124-11.09-24.94-.6.117-1.2.29-1.8.522z"/><path fill="url(#e)" d="M47.459 49.37c4.835 6.866 6.566 21.13 12.829 24.312 1.287-.471 2.582-1.195 3.883-2.15-5.032-6.29-5.58-21.78-11.887-25.2-1.6.616-3.207 1.645-4.825 3.037z"/><path fill="url(#f)" d="M42.484 50.945c-.757 1.777-1.532 4.113-2.467 7.162 1.86-2.72 3.716-5.063 5.56-6.962a21.38 21.38 0 0 0-.82-2.223 28.004 28.004 0 0 0-2.273 2.023z"/><path fill="#2B74B1" d="M45.428 48.41c-.222.165-.446.334-.67.512.293.666.565 1.413.82 2.223.334-.34.667-.67 1-.984a13.804 13.804 0 0 0-1.15-1.751z"/><path fill="#125A9E" d="M46.223 47.86c-.265.174-.529.357-.794.55a13.88 13.88 0 0 1 1.15 1.752c.294-.276.588-.542.88-.793a12.05 12.05 0 0 0-1.236-1.509z"/><path fill="url(#g)" d="M89.235 45.003C85.67 59.268 78.22 70.725 71.975 73.614h-.013a9.76 9.76 0 0 1-.337.15c-.015.01-.03.01-.04.016l-.097.038c-.015.01-.03.013-.043.019-.053.019-.104.035-.156.057-.022.01-.043.015-.064.023a.736.736 0 0 1-.078.026c-.023.01-.048.017-.075.028-.022.01-.046.013-.067.023-.045.014-.087.025-.133.042-.019 0-.036.01-.056.015-.028.01-.06.017-.09.026-.022.01-.04.013-.061.017a1.82 1.82 0 0 1-.099.027l-.12.027c.283.108.577.163.895.163 5.921 0 11.892-11.007 21.772-29.311h-3.88l.002.003z"/><path fill="url(#h)" d="M38.73 46.216c.004 0 .009-.01.011-.01.005 0 .012 0 .014-.01h.008c.033-.01.063-.024.096-.037.008 0 .013 0 .019-.01.008 0 .016-.01.024-.01l.103-.038h.006c.078-.025.151-.055.227-.083.01 0 .021-.01.034-.01.032-.01.065-.022.097-.03.016-.01.03-.01.045-.014.034-.011.067-.023.098-.03.014 0 .027-.01.038-.011.108-.031.216-.06.325-.088.016 0 .028-.01.045-.01a.607.607 0 0 1 .095-.02c.014-.01.03-.01.047-.014.031-.01.062-.01.096-.019h.022c.065-.014.132-.025.198-.038h.04c.031-.01.06-.01.09-.016.018 0 .036-.01.052-.01.03 0 .059-.01.088-.014.015 0 .03 0 .048-.01.07-.009.14-.013.214-.019a6.333 6.333 0 0 0-.63-.034c-6.67 0-15.858 12.834-19.998 29.454h.798a243.63 243.63 0 0 0 3.603-6.944c2.899-11.772 8.803-19.8 14.048-21.927"/><path fill="#0D82CA" d="M42.484 50.945a27.982 27.982 0 0 1 2.273-2.023c-.172-.391-.35-.753-.541-1.085-.61.768-1.168 1.781-1.732 3.108zm.548-4.632c.436.38.826.9 1.183 1.525a5.48 5.48 0 0 1 .344-.4 6.687 6.687 0 0 0-1.527-1.125"/><path fill="url(#i)" d="M24.683 68.143c6.08-12.154 8.962-19.845 14.048-21.927-5.244 2.128-11.15 10.156-14.048 21.927z"/><path fill="#127BCA" d="M44.56 47.438a5.744 5.744 0 0 0-.345.4c.191.331.369.692.542 1.084.225-.178.449-.347.672-.512a9.346 9.346 0 0 0-.87-.972z"/><path fill="url(#j)" d="M27.443 75.032c-.037.01-.075.01-.11.014h-.021c-.032 0-.065.01-.094.01h-.015c-.076.009-.151.009-.224.015h-.023c6.155-.179 8.968-3.375 10.364-8.01 1.061-3.515 1.933-6.475 2.697-8.959-2.578 3.763-5.168 8.25-7.772 13.275-1.255 2.422-3.164 3.434-4.802 3.65"/><path fill="url(#k)" d="M27.443 75.03c1.638-.217 3.547-1.228 4.802-3.651 2.604-5.024 5.195-9.511 7.77-13.275.938-3.05 1.71-5.385 2.47-7.162-5.134 5.068-10.288 13.495-15.042 24.085"/><path fill="#05A1E6" d="M24.682 68.143a243.113 243.113 0 0 1-3.603 6.944h2.32a60.75 60.75 0 0 1 1.283-6.943"/><path fill="url(#l)" d="M40.696 45.69c-.019 0-.033.01-.05.01-.028.01-.057.01-.086.013-.017 0-.034 0-.052.01-.031.01-.06.01-.09.017-.015 0-.029 0-.04.01-.068.01-.133.023-.199.035h-.022a.754.754 0 0 1-.096.02c-.017.01-.033.01-.048.013-.032.01-.063.014-.094.02-.016.01-.029.01-.044.01a10.06 10.06 0 0 0-.326.088c-.011 0-.023.01-.037.011l-.099.03c-.014.01-.03.01-.044.014l-.097.03c-.013 0-.024.01-.036.01-.075.029-.148.058-.226.082-.032.01-.068.024-.103.037-.014.01-.027.012-.043.019a.91.91 0 0 0-.096.037c-.012.01-.023.01-.032.015-5.085 2.082-7.967 9.774-14.048 21.928a60.492 60.492 0 0 0-1.282 6.942h.325c.917 0 1.176-.01 2.232-.01h1.022c.073-.01.148-.01.224-.016h.014c.032 0 .063-.01.094-.01h.022c.034 0 .072-.009.11-.013 4.754-10.59 9.907-19.017 15.041-24.085.565-1.326 1.121-2.34 1.73-3.106-.356-.624-.746-1.146-1.182-1.526 0 0-.011 0-.012-.01-.025-.01-.048-.023-.073-.035l-.072-.038a.74.74 0 0 1-.07-.035c-.03-.01-.055-.023-.082-.036l-.064-.03a2.703 2.703 0 0 1-.135-.057c-.02-.01-.038-.015-.057-.023a1.948 1.948 0 0 1-.101-.041c-.017-.01-.035-.012-.054-.02l-.14-.049h-.01c-.055-.018-.108-.032-.163-.047-.012-.01-.023-.01-.036-.012l-.136-.04c-.011 0-.022-.01-.031-.01a4.699 4.699 0 0 0-.339-.076c-.012 0-.023-.01-.035-.01a1.959 1.959 0 0 0-.146-.024c-.012-.01-.02-.01-.03-.01a3.76 3.76 0 0 0-.173-.023h-.03c-.047-.01-.09-.01-.134-.016-.074.01-.144.014-.213.02"/><path fill="url(#m)" d="M75.304 52.9c-1.17 3.888-2.117 7.094-2.942 9.733 3.21-4.582 6.373-10.346 9.384-16.998-3.512 1.144-5.386 3.763-6.442 7.265z"/><path fill="url(#n)" d="M72.464 73.371a9.964 9.964 0 0 1-.49.243c6.245-2.889 13.694-14.346 17.261-28.61h-.723c-8.194 15.18-10.83 25.343-16.048 28.367z"/><path fill="#079AE1" d="M68.386 72.096c1.359-1.72 2.466-4.644 3.977-9.463-1.743 2.483-3.498 4.617-5.254 6.358 0 .01 0 .01-.009.016.383 1.19.804 2.24 1.283 3.089"/><path fill="#1969BC" d="M68.386 72.096c-.463.585-.952 1.031-1.497 1.361-.12.073-.24.14-.363.202a5.129 5.129 0 0 0 2.217.651h.019c.048 0 .098 0 .15.01h.508c.019 0 .038 0 .057-.01.036 0 .075 0 .112-.01h.056c.038 0 .08-.009.121-.013h.01c.012 0 .025-.01.037-.01.043-.01.088-.013.13-.02h.039c.048-.01.097-.016.146-.025h.024c.098-.02.194-.04.291-.064-.806-.306-1.48-1.028-2.061-2.056"/><path fill="#1E5CB3" d="M56.872 74.32c.585 0 1.175-.059 1.768-.177a10.634 10.634 0 0 0 1.648-.46 5.846 5.846 0 0 0 2.68.637h-6.096z"/><path fill="#1E5CB3" d="M62.969 74.32c1.443 0 2.586-.177 3.557-.66a5.133 5.133 0 0 0 2.217.65h.02c.047 0 .097 0 .149.01h.175-6.122.004z"/><path fill="#1D60B5" d="M69.09 74.32h.334c.02 0 .039 0 .058-.01.036 0 .075 0 .113-.01h.056c.038 0 .08-.009.12-.013h.01c.013 0 .025-.01.037-.01.043-.009.088-.013.13-.02.014 0 .025 0 .04-.01.048-.009.098-.014.147-.023h.023a5 5 0 0 0 .292-.065c.282.108.576.163.894.163l-2.252.01-.001-.012z"/><path fill="#175FAB" d="M67.104 69.007v-.01a28.454 28.454 0 0 1-1.926 1.75c-.335.276-.669.537-1.006.784.282.35.57.678.871.977.46.461.95.85 1.486 1.15a5.74 5.74 0 0 0 .362-.201c.545-.33 1.035-.777 1.498-1.362-.48-.848-.9-1.899-1.283-3.09"/><path fill="url(#o)" d="M86.224 45.003h-3.637c-.197.01-.388.017-.576.03l-.269.595c-3.01 6.652-6.173 12.416-9.384 16.998-1.51 4.819-2.618 7.742-3.976 9.463.58 1.027 1.257 1.75 2.06 2.056.024-.01.042-.01.063-.015h.013c.014 0 .03-.01.045-.01.033-.009.068-.015.1-.026.022-.01.04-.01.06-.017.03-.01.062-.017.09-.024.02-.01.038-.013.057-.017.047-.016.089-.027.133-.042a.38.38 0 0 1 .067-.023c.026-.01.052-.017.075-.028.027-.01.054-.015.077-.025.021-.01.044-.016.064-.025.052-.02.104-.036.156-.057.015 0 .029-.014.044-.017.031-.014.064-.024.096-.039.012-.01.026-.01.04-.015.111-.048.225-.097.338-.15h.012c.162-.073.326-.156.488-.243 5.22-3.024 7.856-13.187 16.05-28.367h-2.288l.002-.002z"/><path fill="#7DCBEC" d="M40.91 45.67c.012 0 .024 0 .037.01a.29.29 0 0 1 .095.01h.031c.058.01.115.015.174.024.01 0 .02 0 .029.01.048.01.097.017.146.025.011 0 .025.01.037.01.112.023.227.047.337.077.01 0 .021.01.03.01.047.011.09.026.136.04.015 0 .025.01.038.011.055.015.106.03.16.048.003 0 .006 0 .012.01.046.014.093.033.14.05.02.009.037.013.055.018l.1.043c.02 0 .038.013.058.02.043.02.089.039.133.058l.066.03a.558.558 0 0 0 .08.035l.072.035.072.038c.58.297 1.116.692 1.611 1.17a5.3 5.3 0 0 1 .572-.538c-1.084-.797-2.311-1.251-3.727-1.251-.164 0-.328.01-.495.022"/><path fill="#5EC5ED" d="M44.56 47.438c.303.293.593.62.868.972.266-.192.53-.377.794-.55a8.459 8.459 0 0 0-1.092-.96 5.117 5.117 0 0 0-.57.538z"/><path fill="url(#p)" d="M40.91 45.67c.166-.014.33-.02.494-.02 1.415 0 2.643.454 3.726 1.25 1.143-.936 2.526-1.263 4.445-1.263H40.28c.214 0 .424.014.63.033z"/><path fill="url(#q)" d="M49.575 45.637c-1.92 0-3.301.327-4.444 1.263.38.278.745.6 1.091.96 1.592-1.05 3.169-1.744 4.723-2.048a9.252 9.252 0 0 1 1.767-.175h-3.137z"/><path fill="url(#r)" d="M72.362 62.635c.826-2.64 1.77-5.846 2.943-9.735 1.057-3.503 2.927-6.122 6.44-7.265.093-.196.18-.397.27-.595-5.726.356-8.402 3.377-9.749 7.85-2.355 7.812-3.782 12.874-5.156 16.1 1.755-1.739 3.51-3.874 5.252-6.355z"/><path fill="#000" d="M80.763 72.24h-.649v2.091h-.265V72.24h-.65v-.249h1.564v.25zm2.657 2.09h-.264v-1.57c0-.124.01-.276.022-.454-.027.107-.05.18-.07.228l-.769 1.798h-.128l-.771-1.785a1.33 1.33 0 0 1-.07-.241h-.009c.01.094.013.246.013.458v1.568h-.253v-2.34h.349l.692 1.633c.052.123.085.217.102.28h.01c.046-.128.083-.224.109-.287l.706-1.627h.333v2.34h-.002z"/><path fill="#000" fill-rule="evenodd" d="M133.589 46.138a1.048 1.048 0 0 0-.533-.137c-.561 0-.839.367-.839 1.1v.801h1.173v.704h-1.173v4.489h-.802v-4.489h-.852v-.704h.852v-.842c0-.571.168-1.02.512-1.343.294-.28.653-.42 1.081-.42.248 0 .441.03.581.09v.75zm-27.336 6.957h-.799v-5.193h.799v5.193zm.138-7.054c0 .153-.052.28-.155.386a.499.499 0 0 1-.372.157.509.509 0 0 1-.37-.152.528.528 0 0 1-.152-.391c0-.15.051-.278.152-.382a.5.5 0 0 1 .37-.154c.146 0 .271.05.372.154a.523.523 0 0 1 .155.382zm-3.491 7.054h.822v-7.271h-1.03l-2.197 5.049c-.084.196-.196.494-.336.892h-.034a6.708 6.708 0 0 0-.318-.87l-2.15-5.071H96.57v7.271h.793v-4.873c0-.655-.014-1.128-.04-1.42h.019c.071.341.142.59.21.745l2.395 5.548h.401l2.391-5.588c.062-.145.132-.38.21-.704h.018a18.372 18.372 0 0 0-.068 1.41v4.882zm36.001-5.51c.055.047.081.12.081.22 0 .201-.115.302-.35.302h-.254v-.6h.21c.147 0 .252.027.313.078zm.409 1.472h.001-.001zm-.223-.468l.223.468h-.289l-.184-.423c-.094-.211-.194-.317-.303-.317h-.156v.74h-.239v-1.76h.478c.212 0 .372.047.481.147a.43.43 0 0 1 .14.331.44.44 0 0 1-.115.308.563.563 0 0 1-.317.173v.008c.095.023.189.13.281.325zm.411-1.266c.227.232.341.524.341.87 0 .35-.114.642-.343.875a1.115 1.115 0 0 1-.833.353c-.327 0-.605-.115-.832-.349a1.2 1.2 0 0 1-.346-.878c0-.344.111-.634.334-.869a1.12 1.12 0 0 1 .844-.35c.329 0 .607.117.835.348zm.114 1.84c.259-.262.388-.588.388-.977 0-.397-.13-.724-.391-.984a1.28 1.28 0 0 0-.941-.38c-.381 0-.7.133-.956.398a1.356 1.356 0 0 0-.384.977c0 .394.125.72.377.978.253.255.57.385.952.385.379 0 .696-.132.955-.396zm-29.734 4.057c.529 0 .987-.121 1.371-.365v-.79c-.384.297-.793.446-1.231.446-.519 0-.93-.176-1.238-.527-.308-.353-.463-.831-.463-1.435 0-.63.169-1.133.504-1.51.322-.369.737-.554 1.247-.554.424 0 .819.135 1.193.407v-.853a2.483 2.483 0 0 0-1.159-.264c-.796 0-1.428.262-1.898.786-.474.524-.708 1.212-.708 2.063 0 .758.216 1.376.644 1.855.442.494 1.02.741 1.738.741zm5.196-4.475c-.141-.113-.344-.168-.612-.168-.326 0-.599.151-.821.456-.252.34-.377.812-.377 1.414v2.647h-.801v-5.192h.801v1.07h.02c.117-.378.299-.67.542-.877.227-.188.484-.283.767-.283.214 0 .372.023.481.07v.862zm4.032.242c.289.348.434.856.434 1.52 0 .636-.135 1.126-.406 1.472-.277.354-.68.532-1.207.532-.509 0-.915-.175-1.217-.526-.303-.348-.453-.835-.453-1.457 0-.663.157-1.173.474-1.535.298-.339.698-.508 1.196-.508.506 0 .898.167 1.179.502zm.582 3.482c.448-.498.674-1.163.674-1.99 0-.842-.211-1.504-.627-1.985-.42-.478-1.004-.72-1.75-.72-.759 0-1.365.231-1.817.69-.49.495-.734 1.191-.734 2.095 0 .791.216 1.428.646 1.91.438.5 1.037.75 1.788.75.762 0 1.369-.25 1.82-.75zm4.648-.763c0 .425-.153.777-.46 1.058-.335.304-.795.456-1.374.456-.474 0-.889-.103-1.242-.313v-.894c.393.331.826.498 1.302.498.634 0 .952-.243.952-.726a.651.651 0 0 0-.21-.5c-.141-.133-.415-.292-.822-.478-.419-.19-.718-.386-.894-.589-.212-.24-.318-.553-.318-.938 0-.43.166-.79.494-1.075.329-.287.752-.43 1.272-.43.398 0 .754.08 1.07.244v.836a1.843 1.843 0 0 0-1.136-.37c-.265 0-.479.069-.637.202a.655.655 0 0 0-.241.523c0 .23.067.41.201.537.119.118.371.263.751.431.428.186.737.378.925.575.244.25.367.567.367.953zm4.463-2.719c.29.348.435.856.435 1.52 0 .636-.136 1.126-.407 1.472-.276.354-.678.532-1.206.532-.508 0-.915-.175-1.22-.526-.3-.348-.451-.835-.451-1.457 0-.663.157-1.173.472-1.535.301-.339.701-.508 1.199-.508.504 0 .898.167 1.178.502zm.581 3.482c.45-.498.677-1.163.677-1.99 0-.842-.212-1.504-.629-1.985-.42-.478-1.002-.72-1.749-.72-.759 0-1.366.231-1.819.69-.487.495-.732 1.191-.732 2.095 0 .791.216 1.428.645 1.91.439.5 1.037.75 1.789.75.763 0 1.369-.25 1.818-.75zm6.618.742c.312 0 .564-.056.754-.169v-.709a.83.83 0 0 1-.519.168c-.267 0-.456-.073-.572-.222-.115-.145-.17-.394-.17-.742v-2.93h1.261v-.705h-1.261v-1.536c-.093.03-.185.062-.275.092l-.004.002c-.18.06-.354.12-.524.175v1.267h-.859v.705h.859v3.071c0 1.022.437 1.533 1.31 1.533zM93.429 73.36c0 .407-.14.759-.423 1.056a1.365 1.365 0 0 1-1.025.445 1.31 1.31 0 0 1-1-.445 1.507 1.507 0 0 1-.41-1.056c0-.419.136-.772.41-1.064a1.315 1.315 0 0 1 1-.439c.401 0 .744.147 1.025.445.283.297.423.65.423 1.058zm15.33 1.196h2.614V55.492h-2.142V68.92c0 1.32.045 2.254.13 2.803h-.051c-.127-.256-.377-.681-.744-1.275l-9.204-14.956h-2.796v19.065h2.155V60.783c0-1.339-.035-2.212-.103-2.619h.079c.162.434.353.831.575 1.197l9.487 15.196zm16.427 0h-9.743V55.492h9.32v2.02h-7.167v6.342h6.641v2.021h-6.641v6.66h7.59v2.022zm9.482-17.045h5.296v-2.02h-12.755v2.02h5.306v17.045h2.153V57.512z" clip-rule="evenodd"/><defs><linearGradient id="a" x1="52.11" x2="52.11" y1="45.45" y2="81.48" gradientUnits="userSpaceOnUse"><stop stop-color="#0994DC"/><stop offset=".35" stop-color="#66CEF5"/><stop offset=".85" stop-color="#127BCA"/><stop offset="1" stop-color="#127BCA"/></linearGradient><linearGradient id="b" x1="53.43" x2="53.43" y1="44.53" y2="81.48" gradientUnits="userSpaceOnUse"><stop stop-color="#0E76BC"/><stop offset=".36" stop-color="#36AEE8"/><stop offset=".85" stop-color="#00ADEF"/><stop offset="1" stop-color="#00ADEF"/></linearGradient><linearGradient id="c" x1="60.59" x2="60.59" y1="73.49" y2="44.09" gradientUnits="userSpaceOnUse"><stop stop-color="#1C63B7"/><stop offset=".5" stop-color="#33BDF2"/><stop offset="1" stop-color="#33BDF2" stop-opacity=".42"/></linearGradient><linearGradient id="d" x1="58.73" x2="58.73" y1="40.79" y2="79.15" gradientUnits="userSpaceOnUse"><stop stop-color="#166AB8"/><stop offset=".4" stop-color="#36AEE8"/><stop offset=".85" stop-color="#0798DD"/><stop offset="1" stop-color="#0798DD"/></linearGradient><linearGradient id="e" x1="55.81" x2="55.81" y1="40.99" y2="81.78" gradientUnits="userSpaceOnUse"><stop stop-color="#124379"/><stop offset=".39" stop-color="#1487CB"/><stop offset=".78" stop-color="#165197"/><stop offset="1" stop-color="#165197"/></linearGradient><linearGradient id="f" x1="40.02" x2="45.58" y1="53.51" y2="53.51" gradientUnits="userSpaceOnUse"><stop stop-color="#33BDF2" stop-opacity=".7"/><stop offset="1" stop-color="#1DACD8"/></linearGradient><linearGradient id="g" x1="81.78" x2="81.78" y1="72.75" y2="44.11" gradientUnits="userSpaceOnUse"><stop stop-color="#136AB4"/><stop offset=".6" stop-color="#59CAF5" stop-opacity=".55"/><stop offset="1" stop-color="#59CAF5" stop-opacity=".23"/></linearGradient><linearGradient id="h" x1="20.28" x2="40.91" y1="60.36" y2="60.36" gradientUnits="userSpaceOnUse"><stop stop-color="#05A1E6" stop-opacity=".25"/><stop offset="1" stop-color="#05A1E6"/></linearGradient><linearGradient id="i" x1="31.71" x2="31.71" y1="73.47" y2="44.15" gradientUnits="userSpaceOnUse"><stop stop-color="#318ED5"/><stop offset="1" stop-color="#38A7E4"/></linearGradient><linearGradient id="j" x1="33.49" x2="33.49" y1="73.58" y2="45.07" gradientUnits="userSpaceOnUse"><stop stop-color="#05A1E6"/><stop offset="1" stop-color="#05A1E6" stop-opacity=".55"/></linearGradient><linearGradient id="k" x1="34.96" x2="34.96" y1="75.03" y2="50.95" gradientUnits="userSpaceOnUse"><stop stop-color="#1959A6"/><stop offset=".5" stop-color="#05A1E6"/><stop offset=".92" stop-color="#7EC5EA"/><stop offset="1" stop-color="#7EC5EA"/></linearGradient><linearGradient id="l" x1="35.85" x2="27.45" y1="73.49" y2="48.72" gradientUnits="userSpaceOnUse"><stop stop-color="#165096"/><stop offset="1" stop-color="#0D82CA"/></linearGradient><linearGradient id="m" x1="77.05" x2="77.05" y1="58.72" y2="45.07" gradientUnits="userSpaceOnUse"><stop stop-color="#05A1E6"/><stop offset=".87" stop-color="#0495D6"/><stop offset="1" stop-color="#0495D6"/></linearGradient><linearGradient id="n" x1="83.24" x2="70.21" y1="43.81" y2="71.7" gradientUnits="userSpaceOnUse"><stop stop-color="#38A7E4" stop-opacity=".33"/><stop offset=".96" stop-color="#0E88D3"/><stop offset="1" stop-color="#0E88D3"/></linearGradient><linearGradient id="o" x1="78.45" x2="78.45" y1="44.92" y2="74.69" gradientUnits="userSpaceOnUse"><stop stop-color="#168CD4"/><stop offset=".5" stop-color="#1C87CC"/><stop offset="1" stop-color="#154B8D"/></linearGradient><linearGradient id="p" x1="41.83" x2="41.96" y1="44.3" y2="47.43" gradientUnits="userSpaceOnUse"><stop stop-color="#97D6EE"/><stop offset=".7" stop-color="#55C1EA"/><stop offset="1" stop-color="#55C1EA"/></linearGradient><linearGradient id="q" x1="45.65" x2="46.26" y1="47.72" y2="44.42" gradientUnits="userSpaceOnUse"><stop stop-color="#7ACCEC"/><stop offset="1" stop-color="#3FB7ED"/></linearGradient><linearGradient id="r" x1="74.56" x2="74.56" y1="46.56" y2="75.69" gradientUnits="userSpaceOnUse"><stop stop-color="#1DA7E7"/><stop offset="1" stop-color="#37ABE7" stop-opacity="0"/></linearGradient></defs></svg>