<svg xmlns="http://www.w3.org/2000/svg" width="259" height="61" fill="none"><g fill="#B4BAC1" clip-path="url(#a)"><path d="M45.252 0C20.646 0 .8 11.643.8 26.07c0 6.15 3.588 11.716 9.667 16.257-3.003-3.735-4.687-7.836-4.687-12.23 0-14.939 19.48-27.095 43.427-27.095 15.452 0 29.073 5.053 36.763 12.67C79.16 6.443 63.414 0 45.252 0z"/><path d="M41.37 33.466c1.832 0 3.296-.366 4.395-1.172 1.245-.805 1.904-2.05 1.904-3.661 0-3.003-.952-5.712-2.93-8.202-1.977-2.49-4.467-4.394-7.47-5.712-2.123-.879-4.466-1.318-7.103-1.318-5.273 0-9.593 1.684-12.962 5.126-3.369 3.442-5.053 7.543-5.053 12.302 0 4.834 1.758 8.934 5.273 12.23 3.515 3.295 7.909 4.98 13.255 4.98 2.856 0 5.566-.367 8.129-1.172 3.075-.952 5.346-2.27 6.737-4.028.806-.952 1.172-1.904 1.172-2.856 0-2.49-1.392-3.808-4.248-3.808-.586 0-2.197.513-4.76 1.611-2.49 1.026-4.687 1.538-6.444 1.538-2.197 0-4.028-.512-5.493-1.538-1.464-1.025-2.343-2.416-2.563-4.32h18.162zM25.48 22.92c1.244-1.026 2.855-1.611 4.76-1.611 1.83 0 3.441.512 4.76 1.61 1.318 1.1 2.05 2.49 2.123 4.175h-14.06c.293-1.684 1.098-3.076 2.416-4.174zM53.6 42.986c3.296 3.295 7.617 4.98 12.963 4.98 3.222 0 5.932-.513 8.056-1.465 3.002-1.392 4.467-3.003 4.467-4.98 0-1.172-.366-2.124-1.172-3.002-.805-.806-1.757-1.245-3.002-1.245-.806 0-1.904.22-3.15.732-1.244.513-2.636.732-4.174.732-2.563 0-4.54-.805-5.931-2.416-1.245-1.465-1.831-3.369-1.831-5.785 0-2.27.585-4.174 1.757-5.712 1.318-1.684 3.222-2.49 5.64-2.49 1.464 0 2.928.22 4.247.732 1.318.513 2.416.732 3.295.732 1.245 0 2.344-.366 3.15-1.171.805-.806 1.244-1.758 1.244-2.93 0-2.27-1.465-3.954-4.394-5.052-2.197-.806-4.687-1.172-7.616-1.172-5.566 0-10.033 1.611-13.328 4.833-3.37 3.222-5.054 7.396-5.054 12.45.074 4.979 1.612 9.006 4.834 12.229zm30.832.073c3.442 3.442 7.836 5.126 13.182 5.126s9.74-1.684 13.182-5.053c3.295-3.295 4.906-7.396 4.906-12.302 0-4.98-1.684-9.154-4.979-12.45-3.296-3.295-7.69-4.98-13.11-4.98-5.345 0-9.666 1.685-13.035 5.054-3.368 3.368-5.053 7.47-5.053 12.449-.073 4.76 1.611 8.86 4.907 12.156zm7.69-17.941c1.244-1.758 3.075-2.563 5.419-2.563 2.27 0 4.101.878 5.346 2.636 1.171 1.538 1.684 3.368 1.684 5.565 0 2.27-.586 4.101-1.684 5.566-1.245 1.757-3.076 2.636-5.42 2.636-2.27 0-4.1-.879-5.346-2.636-1.171-1.538-1.684-3.369-1.684-5.566.073-2.27.586-4.1 1.684-5.638zm38.52-12.596h4.76c5.053 0 7.543 1.904 7.543 5.712 0 3.881-2.49 5.858-7.543 5.858h-4.76v-11.57zm0 28.047v-7.47h7.397c5.199 0 9.3-1.317 12.303-3.88 3.002-2.637 4.467-6.298 4.467-10.985 0-4.76-1.684-8.495-4.98-11.13-3.149-2.49-7.397-3.809-12.669-3.809h-9.887c-2.856 0-4.833.513-5.932 1.538-1.098 1.025-1.684 2.856-1.684 5.492V40.57c0 4.76 1.831 7.103 5.492 7.103 3.662 0 5.493-2.343 5.493-7.103zm37.569-15.232c1.244-1.61 3.002-2.49 5.199-2.49 2.27 0 3.955.806 5.2 2.49 1.025 1.465 1.611 3.222 1.611 5.346s-.513 3.955-1.611 5.419c-1.245 1.684-2.93 2.49-5.2 2.49s-4.028-.806-5.273-2.49c-1.098-1.464-1.611-3.295-1.611-5.419 0-2.124.586-3.881 1.685-5.346zm17.575 22.335c3.516 0 5.273-2.343 5.273-7.103V21.017c0-4.687-1.757-7.03-5.273-7.03-2.197 0-3.881 1.025-5.126 3.075-2.197-2.343-5.053-3.515-8.568-3.515-4.907 0-8.935 1.831-12.084 5.42-3.002 3.368-4.467 7.322-4.467 11.863 0 4.467 1.465 8.42 4.321 11.716 3.149 3.589 7.104 5.42 11.937 5.42 3.808 0 6.811-1.246 9.008-3.662.878 2.197 2.636 3.368 4.979 3.368zm30.099-29.877l-6.518 15.524-6.078-14.646c-.659-1.61-1.245-2.709-1.757-3.295-.879-.952-2.124-1.391-3.662-1.391-1.465 0-2.71.44-3.735 1.391-1.025.952-1.465 2.05-1.465 3.442 0 .952.22 1.83.586 2.71l10.765 22.92-4.393 8.714c-.586 1.245-.879 2.344-.879 3.296 0 1.464.512 2.563 1.464 3.441.952.806 2.271 1.245 3.808 1.245 1.905 0 3.442-1.318 4.687-3.88l16.331-35.15c.586-1.246.879-2.344.879-3.37 0-3.075-1.757-4.613-5.273-4.613-2.123-.22-3.661 1.099-4.76 3.662zm36.251 20.357H241.59l14.207-16.623c1.465-1.684 2.197-3.075 2.197-4.247 0-1.318-.586-2.124-1.684-2.416-1.099-.367-2.783-.513-5.126-.513h-17.137c-4.54 0-6.811 1.465-6.811 4.394 0 3.002 2.271 4.467 6.738 4.467h9.227l-14.72 17.282c-1.025 1.245-1.611 2.49-1.611 3.734 0 1.978 1.904 3.003 5.639 3.003h19.48c4.467 0 6.738-1.465 6.738-4.467.073-3.076-2.197-4.614-6.591-4.614z"/></g><defs><clipPath id="a"><path fill="#fff" d="M0 0h258v61H0z" transform="translate(.8)"/></clipPath></defs></svg>