<svg xmlns="http://www.w3.org/2000/svg" width="68" height="68" fill="none" viewBox="0 0 68 68"><path fill="#132234" d="M44.336 15.708c0 1.156-.953 2.04-2.108 2.04a2.046 2.046 0 0 1-2.04-2.04c0-1.156.951-2.04 2.04-2.04 1.224 0 2.108.884 2.108 2.04zm6.12 0c0 1.156-.953 2.04-2.04 2.04a2.046 2.046 0 0 1-2.04-2.04c0-1.156.952-2.04 2.04-2.04 1.156 0 2.04.884 2.04 2.04zm7.48 0c0 1.156-.953 2.04-2.04 2.04a2.046 2.046 0 0 1-2.04-2.04c0-1.156.951-2.04 2.04-2.04 1.087 0 2.04.884 2.04 2.04z"/><path fill="#132234" d="M63.172 60.452H4.964a1.655 1.655 0 0 1-1.632-1.632V8.84c0-.884.748-1.632 1.632-1.632h58.208c.884 0 1.632.748 1.632 1.632v49.912c0 .952-.748 1.7-1.632 1.7zM6.596 57.188H61.54V10.472H6.596v46.716z"/><path fill="#132234" d="M55.897 23.936H5.237a1.655 1.655 0 0 1-1.633-1.632c0-.884.748-1.632 1.632-1.632h50.66c.885 0 1.633.748 1.633 1.632a1.61 1.61 0 0 1-1.633 1.632z"/><path fill="#F72B57" d="M25.568 32.912c.612.612.612 1.7 0 2.312l-4.556 4.556 4.556 4.556c.612.612.612 1.632 0 2.312-.612.612-1.632.612-2.312 0l-5.712-5.712c-.612-.612-.612-1.632 0-2.312l5.712-5.712c.612-.612 1.632-.612 2.312 0zM40.8 46.58c-.612-.612-.612-1.7 0-2.312l4.556-4.556-4.556-4.488c-.612-.612-.612-1.632 0-2.312.612-.612 1.632-.612 2.312 0l5.712 5.712c.612.612.612 1.632 0 2.312l-5.712 5.712c-.68.544-1.7.544-2.312-.068zm-9.792.544c-.204 0-.408 0-.544-.136-.816-.34-1.224-1.224-.952-2.04l4.284-11.288c.34-.816 1.224-1.224 2.04-.952.816.34 1.224 1.224.952 2.04l-4.284 11.288c-.272.68-.816 1.088-1.496 1.088z"/></svg>