<svg xmlns="http://www.w3.org/2000/svg" width="197" height="61" fill="none"><path fill="#B4BAC1" d="M195.073 30.536c0 16.457-10.906 28.266-26.956 28.266-15.178 0-26.451-10.843-26.451-28.266 0-18.709 13.394-28.338 26.956-28.338 13.003 0 26.451 9.122 26.451 28.338zm-13.13 0c0-7.86-3.785-16.964-13.61-16.964-8.917 0-13.603 7.691-13.603 16.964 0 10.42 5.78 16.977 13.603 16.977 9.825 0 13.61-9.02 13.61-16.977zm-45.089 23.122c-3.209 2.162-9.969 5.09-19.187 5.09-18.104 0-27.051-12.551-27.051-27.892 0-17.266 12.162-28.658 28.055-28.658 7.865 0 12.919 1.316 17.395 3.526l-4.59 10.637c-3.419-1.443-7.355-2.288-12.018-2.288-11.483 0-15.382 6.907-15.382 16.44 0 10.286 5.227 16.963 14.349 16.963 3.292 0 5.774-.712 6.531-1.207v-9.575h-9.247l.012-10.83h21.133v27.794zM75.005 57.86c-1.79-6.592-4.807-11.61-7.289-14.815-2.09-2.705-3.72-3.284-3.72-3.284-1.694.048-2.86.048-4.41-.03v18.13H46.944V3.652c2.662-.44 4.567-.67 7.367-.93a92.973 92.973 0 0 1 8.694-.398c4.267 0 7.89.477 10.852 1.419 2.987.941 5.408 2.24 7.295 3.888a14.374 14.374 0 0 1 4.164 5.928c.89 2.191 1.334 4.528 1.334 7.021 0 3.278-.793 6.472-2.536 9.189-1.55 2.42-4.14 4.896-6.832 6.604v.242c6.01 2.758 9.404 11.645 12.703 21.244h-14.98zm-1.033-36.97c0-2.288-.83-4.13-2.458-5.373-1.635-1.298-3.888-1.932-6.61-1.968a50.669 50.669 0 0 0-2.181.03c-.703.018-2.56.187-3.137.296v15.618c.842.096 2.596.175 4.014.175 3.029 0 5.835-.84 7.62-2.228 1.79-1.443 2.752-3.76 2.752-6.55zM2.527 44.88V3.092h37.128l.006 11.651H15.17v9.376H35.9l.007 11.066H15.169v5.856c0 3.682 2.152 5.234 4.958 5.234h20.532l.018 11.585H15.35c-9.488 0-12.823-4.4-12.823-12.98z"/></svg>