<svg xmlns="http://www.w3.org/2000/svg" width="32" height="32" fill="none" viewBox="0 0 32 32"><path fill="#F72B57" d="M28.628 22.614c.496-.816.496-1.836 0-2.686l-4.468-7.414c-.142-.272-.071-.578.212-.714l2.873-1.598c.78-.408 1.028-1.36.602-2.108L23.77 1.326C23.274.51 22.352 0 21.36 0h-9.717c-.993 0-1.915.51-2.412 1.326L4.372 9.42c-.496.816-.496 1.836 0 2.686l4.468 7.448c.142.272.071.578-.212.714l-2.873 1.564c-.78.408-1.028 1.36-.603 2.108l4.043 6.734C9.691 31.49 10.613 32 11.606 32h9.752c.993 0 1.915-.51 2.412-1.326l4.858-8.06zm-5.639-1.326l-3.262 5.407h-6.49L9.55 20.574c-.142-.272-.071-.578.212-.714l2.873-1.599c.78-.408 1.028-1.36.603-2.108l-3.263-5.407 3.263-5.407h6.489l3.688 6.087c.142.272.07.578-.213.714l-2.872 1.6c-.78.408-1.029 1.36-.603 2.108l3.262 5.441z"/></svg>