<svg xmlns="http://www.w3.org/2000/svg" width="100" height="100" fill="none" viewBox="0 0 100 100"><path fill="#132234" d="M50 86.4c-20.1 0-36.4-16.3-36.4-36.4 0-20.1 16.3-36.4 36.4-36.4 7.1 0 14 2 19.9 5.9 1.2.8 1.6 2.4.8 3.7-.8 1.2-2.4 1.6-3.7.8-5-3.3-10.9-5-17-5-17.2 0-31.1 14-31.1 31.1 0 17.2 14 31.1 31.1 31.1s31.1-14 31.1-31.1c0-6.8-2.2-13.3-6.2-18.7-.9-1.2-.6-2.8.5-3.7 1.2-.9 2.8-.6 3.7.5 4.8 6.4 7.3 13.9 7.3 21.9 0 20-16.3 36.3-36.4 36.3z"/><path fill="#F72B57" d="M35.7 63.2c-.9 0-1.7-.4-2.3-1.1l-.1-.2c-1-1.3-.7-3.2.6-4.1 1.3-1 3.2-.7 4.1.6 1 1.3.7 3.2-.6 4.2-.5.4-1.1.6-1.7.6zm-3.3-9.3c-1.5 0-2.8-1.1-2.9-2.7V51c-.1-1.6 1.1-3 2.8-3.1 1.6-.1 3 1.1 3.1 2.8.1 1.6-1.1 3.1-2.8 3.2h-.2zm2.2-9.6c-.5 0-.9-.1-1.4-.4-1.4-.8-2-2.5-1.2-3.9l.1-.1c.8-1.4 2.6-1.9 4-1.1 1.4.8 1.9 2.6 1.1 4-.5.9-1.6 1.5-2.6 1.5zm7.2-6.8c-1.1 0-2.1-.6-2.6-1.5-.7-1.4-.3-3.2 1.2-3.9l.1-.1c1.4-.7 3.2-.2 4 1.3.7 1.4.2 3.2-1.2 3.9-.6.2-1.1.3-1.5.3zM50 70.3c-2.8 0-5.6-.6-8.2-1.8-1.3-.6-1.9-2.2-1.3-3.5.6-1.3 2.2-1.9 3.5-1.3 5.5 2.5 12.1 1.3 16.4-3 5.7-5.7 5.7-15 0-20.7-1.2-1.2-2.5-2.1-4-2.9-1.3-.6-1.9-2.2-1.2-3.5.6-1.3 2.2-1.9 3.5-1.2 2 1 3.9 2.3 5.5 3.9 7.8 7.8 7.8 20.4 0 28.2-3.9 3.8-9 5.8-14.2 5.8z"/><path fill="#132234" d="M50 95c-1.5 0-2.6-1.2-2.6-2.6v-8.6c0-1.5 1.2-2.6 2.6-2.6 1.5 0 2.6 1.2 2.6 2.6v8.6c0 1.4-1.1 2.6-2.6 2.6zm0-76.1c-1.5 0-2.6-1.2-2.6-2.6V7.6C47.4 6.2 48.5 5 50 5s2.6 1.2 2.6 2.6v8.6c0 1.5-1.1 2.7-2.6 2.7zM16.2 52.6H7.6C6.2 52.6 5 51.5 5 50s1.2-2.6 2.6-2.6h8.6c1.5 0 2.6 1.2 2.6 2.6.1 1.5-1.1 2.6-2.6 2.6zm76.2 0h-8.6c-1.5 0-2.6-1.2-2.6-2.6 0-1.5 1.2-2.6 2.6-2.6h8.6c1.5 0 2.6 1.2 2.6 2.6 0 1.5-1.2 2.6-2.6 2.6z"/></svg>