<svg xmlns="http://www.w3.org/2000/svg" width="160" height="120" fill="none"><g clip-path="url(#a)"><path fill="#E76F00" d="M100.266 81.317h-.306v-.174h.823v.174h-.304v.869h-.213v-.869zm1.641.045h-.005l-.303.824h-.138l-.301-.824h-.004v.824h-.201v-1.043h.296l.279.739.278-.739h.295v1.043h-.196v-.824z"/><path fill="#5382A1" d="M72.902 59.993s-2.127 1.26 1.514 1.685c4.41.513 6.663.44 11.523-.497 0 0 1.278.816 3.063 1.522-10.895 4.754-24.657-.275-16.1-2.71zM71.57 53.79s-2.384 1.797 1.258 2.18c4.711.496 8.432.536 14.87-.726 0 0 .89.92 2.29 1.422-13.172 3.921-27.844.309-18.417-2.877z"/><path fill="#E76F00" d="M82.794 43.266c2.684 3.147-.706 5.978-.706 5.978s6.817-3.583 3.686-8.069c-2.923-4.184-5.165-6.262 6.972-13.43 0 0-19.052 4.845-9.952 15.52z"/><path fill="#5382A1" d="M97.203 64.582s1.573 1.32-1.734 2.342c-6.288 1.94-26.173 2.525-31.697.077-1.986-.88 1.738-2.1 2.91-2.356 1.221-.27 1.92-.22 1.92-.22-2.209-1.584-14.274 3.11-6.13 4.455 22.213 3.667 40.492-1.652 34.73-4.298zM73.925 47.361s-10.115 2.447-3.582 3.335c2.758.376 8.257.29 13.379-.146 4.186-.36 8.389-1.124 8.389-1.124s-1.476.643-2.544 1.386c-10.271 2.75-30.113 1.47-24.401-1.343 4.83-2.377 8.759-2.108 8.759-2.108zM92.07 57.688c10.44-5.524 5.613-10.833 2.243-10.118-.826.175-1.194.327-1.194.327s.307-.49.892-.7c6.666-2.387 11.793 7.037-2.152 10.77 0 0 .162-.148.21-.279z"/><path fill="#E76F00" d="M85.774 16.172s5.783 5.89-5.484 14.946c-9.035 7.265-2.06 11.407-.004 16.14-5.274-4.845-9.144-9.11-6.547-13.08 3.81-5.826 14.368-8.65 12.035-18.006z"/><path fill="#5382A1" d="M74.95 72.657c10.023.654 25.413-.362 25.778-5.19 0 0-.701 1.83-8.283 3.284-8.554 1.639-19.105 1.447-25.362.397 0 0 1.28 1.08 7.868 1.51z"/><path fill="#E76F00" d="M73.308 91.107c-.945.835-1.944 1.304-2.84 1.304-1.279 0-1.97-.78-1.97-2.033 0-1.355.74-2.346 3.711-2.346h1.1v3.075zm2.61 2.997v-9.277c0-2.37-1.328-3.933-4.529-3.933-1.869 0-3.505.47-4.836 1.069l.384 1.642c1.048-.392 2.404-.756 3.734-.756 1.844 0 2.637.756 2.637 2.318v1.173h-.92c-4.48 0-6.5 1.77-6.5 4.428 0 2.294 1.331 3.597 3.839 3.597 1.611 0 2.815-.677 3.94-1.669l.203 1.408h2.047zm8.706 0H81.37L77.454 81.13h2.842l2.43 7.972.54 2.398c1.229-3.467 2.098-6.984 2.533-10.37h2.764c-.74 4.272-2.073 8.962-3.94 12.975zm12.482-2.997c-.947.835-1.948 1.304-2.844 1.304-1.277 0-1.97-.78-1.97-2.033 0-1.355.743-2.346 3.713-2.346h1.1v3.075zm2.608 2.997v-9.277c0-2.37-1.33-3.933-4.528-3.933-1.87 0-3.507.47-4.837 1.069l.384 1.642c1.048-.392 2.406-.756 3.736-.756 1.842 0 2.637.756 2.637 2.318v1.173h-.922c-4.481 0-6.501 1.77-6.501 4.428 0 2.294 1.33 3.597 3.838 3.597 1.612 0 2.815-.677 3.942-1.669l.205 1.408h2.046zm-36.687 2.204c-.744 1.105-1.945 1.98-3.26 2.475l-1.288-1.543c1-.523 1.86-1.368 2.258-2.155.345-.7.488-1.6.488-3.757V76.514h2.772v14.61c0 2.884-.227 4.048-.97 5.184z"/></g><defs><clipPath id="a"><path fill="#fff" d="M0 0h45v84H0z" transform="translate(57.5 15.5)"/></clipPath></defs></svg>