<svg xmlns="http://www.w3.org/2000/svg" width="160" height="121" fill="none"><g fill-rule="evenodd" clip-path="url(#a)" clip-rule="evenodd"><path fill="#1A1918" d="M129.265 51.214l4.515.024s-8.395 10.7-9.08 11.571c-.223.283-.561.587-.732.965-.434.949-.879 3.03-.879 3.03l-4.131.02s.642-2.17.616-3.326c-.023-1.01-.571-2.018-.879-3.03-.31-1.026-.732-3.031-.732-3.031h4.247l.586 2.204 6.469-8.427z"/><path fill="#1A1918" d="M120.715 53.47c.833.473 1.345 3.08 1.345 3.08s-4.36.06-6.733.06h-2.05l-2.49 10.195h-3.808s2.37-11.079 2.929-13.088c.182-.65 1.242-.538 3.033-.538h2.861c1.847 0 4.005-.222 4.913.292zm-17.726 4.966s.118-.655-.403-1.413c-.445-.646-.857-.796-2.028-.83-3.309-.098-3.245 2.208-3.245 2.208l5.676.035zm3.588-2.641c.484 1.645-.44 5.51-.44 5.51s-4.825-.076-7.469 0c-.822.024-1.805-.084-2.05.276-.344.504.126 1.28.524 1.607.459.378 1.352.42 1.673.459 2.145.256 6.635.066 6.635.066l-.777 3.24s-6.346.3-9.52-.413c-.626-.14-1.214-.424-1.61-.827-.109-.11-.203-.26-.305-.39a3.57 3.57 0 0 1-.428-.712c-.725-1.817.085-5.298.879-7.163.092-.216.208-.49.33-.724.152-.29.28-.618.402-.792.082-.12.183-.197.268-.31.098-.133.212-.263.318-.378.293-.32.625-.546 1.025-.827 1.322-.931 3.716-1.654 6.59-1.377 1.083.104 2.717.468 3.515 1.515.214.28.32.835.44 1.24zm-17.465-2.629l3.692-.02s-2.057 9.181-3.106 13.659h-4.247c-2.969 0-5.612.345-6.737-1.654-1.09-1.94-.05-5.132.44-7.301a969.372 969.372 0 0 1 1.073-4.671l3.826-.033s-1.081 4.883-1.531 7.322c-.161.873-.493 1.695-.147 2.341.33.615.791.659 2.197.69.445.01 1.904 0 1.904 0l2.636-10.333zM71.831 59.78c.386-1.292.95-2.693.879-3.858-.078-1.245-1.188-2.379-1.904-2.617-2.157-.716-4.177.285-4.98 1.102-1.038 1.058-1.39 2.294-1.757 3.995-.274 1.263-.498 2.597 0 3.582.882 1.741 3.63 1.361 6.59 1.378.44-1.108.803-2.352 1.172-3.582zm5.126-5.097c.421 2.884-1.197 6.068-2.311 8.837 1.136.096 2.132-.015 2.204.065.075.103-.762 3.304-1.053 3.313-.902.022-3.891.045-5.138.045-4.067 0-7.871.25-9.812-1.653-.788-.773-1.333-2.098-1.464-3.03-.22-1.557.055-3.271.44-4.684.346-1.276.791-2.48 1.464-3.582 1.709-2.806 4.682-4.89 9.665-4.408.967.093 2.355.491 3.222.964.06.033.27.19.318.218 1.172.7 2.24 2.374 2.465 3.915zm-17.995-1.5c-.246 1.055-.492 2.25-.751 3.29h-4.1c.317-1.154.56-2.302.878-3.306 1.312 0 2.532.017 3.974.017zm-4.998 4.255h3.954c-.517 2.692-1.54 7.034-2.343 10.056-.502 1.892-.838 3.272-2.197 4.27-.121.09-.192.048-.293.138-.25.225-1.409.486-2.05.552-1.043.106-2.222.013-3.503-.011.335-1.153.715-2.538 1.013-3.571 3.124.355 3.203-2.422 3.808-5.097.35-1.546 1.41-5.717 1.61-6.337z"/><path fill="#21609B" d="M44.737 64.463l-.085.206c-1.444 2.645-4.002 4.268-7.652 4.34-1.706.033-3.331-.38-4.393-.827-2.292-.968-4.22-2.764-5.272-4.684-1.51-2.75-1.783-6.578 1.357-9.436.049 0-.38.62-.332.62l-.087.264c-2.262 6.664 4.709 12.374 11.485 11.72 1.628-.156 3.705-.995 4.98-2.203z"/><path fill="#21609B" d="M40.636 61.707c1.705.011 3.486-.738 4.54-1.79-.922 2.202-3.593 3.618-7.175 3.168-3-.377-5.857-3.217-6.151-6.062-.216-2.07.551-3.306 1.815-4.805-.439.784-.603 1.389-.644 1.775-.48 4.478 3.803 7.69 7.615 7.714z"/><path fill="#21609B" d="M45.005 56.145c-.265.572-1.79 1.651-2.465 1.786-2.668.535-4.377-.655-5.272-2.01a6.024 6.024 0 0 1-.423-.895c-.347-1.11-.188-2.79.848-3.659-.312.827-.357 1.787-.193 2.411a5.2 5.2 0 0 0 .706 1.45c.551.755.902.939 1.61 1.34.32.18.662.325.81.365.672.186 2.092.676 4.38-.788"/></g><defs><clipPath id="a"><path fill="#fff" d="M0 0h108v23H0z" transform="translate(26 49.5)"/></clipPath></defs></svg>