<svg xmlns="http://www.w3.org/2000/svg" width="160" height="120" fill="none"><g clip-path="url(#a)"><path fill="#000400" d="M56.82 49.438h4.797v9.478l8.846-9.478h5.794l-8.877 9.2 9.281 12.481H70.9l-6.759-9.23-2.523 2.602v6.628h-4.796V49.44z"/><path fill="#000400" d="M74.112 62.911v-.061c0-4.77 3.862-8.642 9.064-8.642 5.17 0 9.001 3.81 9.001 8.58v.062c0 4.77-3.862 8.64-9.063 8.64-5.17 0-9.002-3.809-9.002-8.579zm13.393 0v-.061c0-2.447-1.775-4.584-4.391-4.584-2.71 0-4.33 2.075-4.33 4.522v.062c0 2.446 1.776 4.583 4.392 4.583 2.71 0 4.33-2.075 4.33-4.522z"/><path fill="#000400" d="M93.484 66.411v-7.867h-1.993v-4.026h1.993v-4.243h4.735v4.243h3.924v4.026h-3.924v7.093c0 1.084.467 1.61 1.526 1.61a4.835 4.835 0 0 0 2.336-.588v3.779c-.997.588-2.15.96-3.738.96-2.896 0-4.859-1.146-4.859-4.987zm10.018-17.902h4.735v22.61h-4.735V48.51zm6.446 0h4.983v4.181h-4.983v-4.18zm.125 6.009h4.734v16.601h-4.734V54.518zm6.535 0h4.734v2.354c1.091-1.394 2.492-2.664 4.89-2.664 3.582 0 5.669 2.354 5.669 6.164v10.747h-4.734v-9.26c0-2.23-1.059-3.377-2.866-3.377-1.806 0-2.959 1.146-2.959 3.376v9.261h-4.734V54.518z"/><path fill="url(#b)" d="M38.945 49.428L28 60.873v10.231l10.929-10.886 10.87-10.79H38.945z"/><path fill="url(#c)" d="M28 71.104l10.929-10.886 10.87 10.886H28z"/><path fill="url(#d)" d="M28 49.428h10.945L28 60.873V49.428z"/></g><defs><linearGradient id="b" x1="24.33" x2="44.5" y1="69.36" y2="49.07" gradientUnits="userSpaceOnUse"><stop offset=".11" stop-color="#C757BC"/><stop offset=".17" stop-color="#CD5CA9"/><stop offset=".49" stop-color="#E8744F"/><stop offset=".72" stop-color="#F88316"/><stop offset=".82" stop-color="#FF8900"/></linearGradient><linearGradient id="c" x1="34.96" x2="44.79" y1="75.02" y2="65.13" gradientUnits="userSpaceOnUse"><stop offset=".3" stop-color="#00AFFF"/><stop offset=".69" stop-color="#5282FF"/><stop offset="1" stop-color="#945DFF"/></linearGradient><linearGradient id="d" x1="9.4" x2="524.13" y1="564.96" y2="72.75" gradientUnits="userSpaceOnUse"><stop offset=".3" stop-color="#00AFFF"/><stop offset=".69" stop-color="#5282FF"/><stop offset="1" stop-color="#945DFF"/></linearGradient><clipPath id="a"><path fill="#fff" d="M0 0h104v23H0z" transform="translate(28 48.5)"/></clipPath></defs></svg>