<svg xmlns="http://www.w3.org/2000/svg" width="105" height="105" fill="none"><g clip-path="url(#a)"><path fill="#B4BAC1" d="M92.177 24.88c-1.852-3.18-4.204-6.147-6.91-8.832C78.357 9.191 69.453 4.745 59.98 3.399c-1.21-.565-2.422-.989-3.704-1.412A41.782 41.782 0 0 0 43.595.009c-10.97 0-21.441 4.596-28.636 12.789a37.207 37.207 0 0 0-8.976 18.37C2.137 37.882 0 45.654 0 53.92c0 20.138 12.964 37.308 31.058 43.667 7.48 4.663 16.312 7.419 25.787 7.419 26.57 0 48.154-21.41 48.154-47.765 0-12.506-4.842-23.812-12.822-32.36zM6.625 32.37c3.49-6.43 8.548-11.87 14.603-15.898l-1.14 1.13c-8.334 9.116-12.395 20.915-11.54 33.209a36.215 36.215 0 0 1-1.994-8.196c-.499-3.462-.427-6.924.07-10.245zM62.33 5.453a35.797 35.797 0 0 1 7.906 5.933c-3.205-.923-6.625-1.488-10.115-1.77a47.483 47.483 0 0 0-13.534-1.978c-4.701 0-9.26.706-13.534 1.978 6.269-3.25 13.25-5.011 20.444-5.011 1.425 0 2.92.066 4.416.207 1.496.141 2.92.358 4.417.64zM46.587 8.768c2.991 0 5.841.282 8.62.782-21.87.772-40.034 15.966-45.092 36.315.428-10.104 4.274-19.572 11.184-27.132a41.463 41.463 0 0 1 7.052-6.148c5.556-2.47 11.754-3.817 18.236-3.817zm37.54 8.41c.713.778 1.425 1.484 2.066 2.261-4.274-3.25-9.118-5.793-14.318-7.56a38.951 38.951 0 0 0-6.91-5.795 43.688 43.688 0 0 1 19.162 11.095zM15.53 13.293A37.766 37.766 0 0 1 43.595.79c4.131 0 8.335.631 12.466 1.978.285.066.57.208.926.283-1.21-.075-2.35-.075-3.49-.075-10.329 0-20.302 3.466-28.209 9.822-7.409 3.745-13.605 9.467-18.093 16.392 1.424-5.864 4.203-11.234 8.334-15.898zM1.07 53.92c0-6.995 1.638-13.637 4.487-19.572-.214 2.755-.214 5.582.142 8.408a37.782 37.782 0 0 0 3.135 10.81c0 .072.071.142.071.213-.142 1.13-.142 2.332-.142 3.462 0 15.192 7.123 28.758 18.307 37.449-15.386-7.207-26-22.823-26-40.77z"/><path fill="#fff" d="M84.769 49.893c-.286-.07-.642-.07-1.07-.07-2.706 0-4.06 1.413-4.772 2.473h-.071v-1.979H75.72v13.425h3.135v-7.136c0-.919 0-3.533 3.99-3.604 1.067 0 1.637.212 1.923.283v-3.392zm-50.719-.071c-5.057 0-7.551 3.392-7.551 7.207 0 4.169 2.92 7.207 7.765 7.207 4.987 0 6.839-3.391 7.052-4.522h-3.42c-.498 1.06-1.78 1.98-3.774 1.98-3.848-.142-4.346-2.968-4.417-3.817H41.6c0-4.804-2.494-7.984-7.55-8.055zm-4.274 5.653c.64-2.544 2.494-3.109 4.131-3.109 2.28 0 3.848.848 4.346 3.11h-8.477zm21.156-5.653c-2.635 0-3.917.919-5.2 1.908v-6.218h-3.134v18.23h3.063v-1.695c.642.635 2.28 2.19 5.342 2.19 3.847 0 7.195-2.756 7.195-7.278 0-4.098-2.849-7.137-7.266-7.137zm-.57 11.73c-2.207 0-3.419-.99-4.63-1.979v-5.229c.927-.777 2.21-1.837 4.488-1.837 2.422 0 4.773 1.484 4.773 4.522 0 2.968-2.209 4.523-4.63 4.523zm20.872 2.19h3.134V50.246h-3.134v1.131c-.855-.919-2.636-1.555-4.488-1.555-5.414 0-7.622 3.604-7.622 7.207 0 5.37 3.918 7.207 7.622 7.207 1.567 0 3.561-.706 4.488-1.766v1.272zm-4.488-2.19c-2.778 0-4.416-1.696-4.416-4.593 0-3.18 1.994-4.452 4.416-4.452 2.351 0 4.417 1.272 4.417 4.452 0 2.897-1.568 4.593-4.417 4.593zm29.709 2.19h3.133V50.246h-3.133v1.131c-.787-.919-2.64-1.555-4.492-1.555-5.413 0-7.622 3.604-7.622 7.207 0 5.37 3.918 7.207 7.623 7.207 1.567 0 3.561-.706 4.491-1.766v1.272zm-4.492-2.19c-2.778 0-4.416-1.696-4.416-4.593 0-3.18 2.065-4.452 4.416-4.452 2.422 0 4.416 1.272 4.416 4.452 0 2.897-1.567 4.593-4.416 4.593zm-66.176-.919h-7.623v-15.12H14.96v18.23h13.32c-1.139-.778-1.994-1.908-2.492-3.11z"/><path fill="#fff" d="M84.769 49.893c-.286-.07-.642-.07-1.07-.07-2.706 0-4.06 1.413-4.772 2.473h-.071v-1.979H75.72v13.425h3.135v-7.136c0-.919 0-3.533 3.99-3.604 1.067 0 1.637.212 1.923.283v-3.392zm-50.719-.071c-5.057 0-7.551 3.392-7.551 7.207 0 4.169 2.92 7.207 7.765 7.207 4.987 0 6.839-3.391 7.052-4.522h-3.42c-.498 1.06-1.78 1.98-3.774 1.98-3.848-.142-4.346-2.968-4.417-3.817H41.6c0-4.804-2.494-7.984-7.55-8.055zm-4.274 5.653c.64-2.544 2.494-3.109 4.131-3.109 2.28 0 3.848.848 4.346 3.11h-8.477zm21.156-5.653c-2.635 0-3.917.919-5.2 1.908v-6.218h-3.134v18.23h3.063v-1.695c.642.635 2.28 2.19 5.342 2.19 3.847 0 7.195-2.756 7.195-7.278 0-4.098-2.849-7.137-7.266-7.137zm-.57 11.73c-2.207 0-3.419-.99-4.63-1.979v-5.229c.927-.777 2.21-1.837 4.488-1.837 2.422 0 4.773 1.484 4.773 4.522 0 2.968-2.209 4.523-4.63 4.523zm20.872 2.19h3.134V50.246h-3.134v1.131c-.855-.919-2.636-1.555-4.488-1.555-5.414 0-7.622 3.604-7.622 7.207 0 5.37 3.918 7.207 7.622 7.207 1.567 0 3.561-.706 4.488-1.766v1.272zm-4.488-2.19c-2.778 0-4.416-1.696-4.416-4.593 0-3.18 1.994-4.452 4.416-4.452 2.351 0 4.417 1.272 4.417 4.452 0 2.897-1.568 4.593-4.417 4.593zm29.709 2.19h3.133V50.246h-3.133v1.131c-.787-.919-2.64-1.555-4.492-1.555-5.413 0-7.622 3.604-7.622 7.207 0 5.37 3.918 7.207 7.623 7.207 1.567 0 3.561-.706 4.491-1.766v1.272zm-4.492-2.19c-2.778 0-4.416-1.696-4.416-4.593 0-3.18 2.065-4.452 4.416-4.452 2.422 0 4.416 1.272 4.416 4.452 0 2.897-1.567 4.593-4.416 4.593zm-66.176-.919h-7.623v-15.12H14.96v18.23h13.32c-1.139-.778-1.994-1.908-2.492-3.11z"/></g><defs><clipPath id="a"><path fill="#fff" d="M0 0h105v105H0z"/></clipPath></defs></svg>