<svg width="100" height="100" viewBox="0 0 100 100" fill="none" xmlns="http://www.w3.org/2000/svg">
<path d="M10.4131 26.4639C6.07681 26.5914 6.85266 17.0049 7.78261 12.1957C6.77294 13.4445 4.54635 17.2972 3.71736 22.7175C2.88837 28.1378 5.12558 31.8842 6.34781 33.0799C6.9855 33.6379 8.34058 34.5107 8.34058 35.3915C8.34058 36.906 8.02173 37.3295 7.70289 37.5437C3.4304 40.4133 0.980631 32.2031 0.289806 27.7393C-1.30441 35.5509 3.71736 45.3553 14.3986 45.6742C22.9436 45.9292 28.1619 41.3698 29.703 39.0582C25.3986 41.7683 19.2609 43.2828 15.9131 40.6524C12.5652 38.0219 12.7247 36.4277 12.7247 34.1958C12.7247 32.4103 13.3623 30.6886 13.6812 30.0509C13.8406 29.6258 14.287 28.377 14.7971 26.7827C15.3073 25.1885 14.744 23.2489 14.3986 22.4784C13.8406 23.9132 14.1594 26.3537 10.4131 26.4639Z" fill="url(#paint0_linear)"/>
<path d="M21.2537 30.1306C18.1291 30.9596 16.8165 28.2441 16.5508 26.7828C15.8334 26.7828 15.3181 29.8118 15.7537 31.2465C16.8377 34.8176 20.7754 35.7635 22.6088 35.7901C23.5122 35.8166 25.8769 35.6306 28.1088 34.6741C30.8987 33.4784 31.2175 32.6813 32.174 31.8045C32.9393 31.1031 33.6088 30.0243 33.848 29.5726C34.3794 28.563 35.3306 25.8741 34.8842 23.1958C34.4378 20.5175 32.4132 18.0943 31.4566 17.2175L29.7827 16.1015L30.5798 17.3769C30.9784 18.3866 31.7595 20.6291 31.6958 21.5219C31.632 22.4146 31.3504 23.3818 31.2175 23.7538L30.5001 24.6306C30.1547 25.1088 29.1291 25.8741 27.79 25.1088C26.4508 24.3436 26.5943 23.1426 26.8334 22.6378C26.9397 22.5315 27.2001 22.032 27.3914 20.8842C27.6305 19.4494 27.5508 18.8914 27.3914 17.5363C27.232 16.1812 25.3986 13.7899 25.0001 13.0725C24.6015 12.3551 20.2972 8.44932 18.2247 7.01453C16.5667 5.8667 15.674 4.14495 15.4348 3.42755L14.6377 0L14.2392 4.06524C14.0798 6.19086 14.6537 11.3827 18.2247 15.145C21.7957 18.9074 23.3262 23.3552 23.645 25.1088C24.1499 26.4373 24.3784 29.3016 21.2537 30.1306Z" fill="url(#paint1_linear)"/>
<defs>
<linearGradient id="paint0_linear" x1="14.8515" y1="12.1957" x2="14.8515" y2="45.6844" gradientUnits="userSpaceOnUse">
<stop offset="0.488935" stop-color="#F4CA86"/>
<stop offset="1" stop-color="#FB8F96"/>
</linearGradient>
<linearGradient id="paint1_linear" x1="24.6078" y1="0" x2="24.6078" y2="35.7924" gradientUnits="userSpaceOnUse">
<stop stop-color="#BFC0CA"/>
<stop offset="1" stop-color="#858CF8"/>
</linearGradient>
</defs>
</svg>
