<svg xmlns="http://www.w3.org/2000/svg" width="208" height="51" fill="none"><g fill="#B4BAC1" fill-rule="evenodd" clip-path="url(#a)" clip-rule="evenodd"><path d="M64.936 10.023h3.06c.331 0 .972-.106 1.923-.319a1.92 1.92 0 0 0 1.178-.734c.305-.394.457-.846.457-1.357 0-.755-.24-1.336-.721-1.74-.481-.404-1.384-.606-2.709-.606h-3.188v4.756zm-7.29 13.918V.542h12.097c2.244 0 3.958.191 5.144.575 1.185.383 2.141 1.094 2.868 2.13.726 1.038 1.09 2.302 1.09 3.791 0 1.299-.279 2.418-.835 3.36a6.511 6.511 0 0 1-2.292 2.291c-.62.372-1.47.68-2.55.925.865.288 1.495.576 1.89.863.267.192.654.602 1.161 1.23.507.629.846 1.113 1.017 1.454l3.515 6.78h-8.202l-3.88-7.15c-.491-.926-.929-1.527-1.314-1.804a3.053 3.053 0 0 0-1.779-.543h-.64v9.497h-7.29zm39.955-8.921L95.01 6.608l-2.566 8.412H97.6zm1.506 5.059h-8.24l-1.146 3.863h-7.41L91.138.543h7.917l8.828 23.399h-7.601l-1.176-3.863zM105.159.543h22.065v5.778h-7.404v17.62h-7.258V6.322h-7.403V.543zm25.381 0h7.259v8.188h7.931V.543h7.291v23.399h-7.291v-9.465h-7.931v9.465h-7.259V.543zm33.65 11.747c0 2.362.44 4.06 1.322 5.091.88 1.033 2.08 1.549 3.596 1.549 1.56 0 2.767-.506 3.622-1.517.855-1.01 1.282-2.825 1.282-5.442 0-2.203-.446-3.812-1.338-4.828-.892-1.017-2.102-1.525-3.63-1.525-1.463 0-2.638.516-3.524 1.548-.887 1.033-1.33 2.74-1.33 5.124zm-7.259-.032c0-3.82 1.068-6.794 3.205-8.922 2.136-2.128 5.111-3.192 8.925-3.192 3.909 0 6.922 1.045 9.037 3.136 2.115 2.09 3.172 5.02 3.172 8.786 0 2.735-.462 4.978-1.385 6.728a9.857 9.857 0 0 1-4.006 4.086c-1.747.974-3.924 1.461-6.53 1.461-2.649 0-4.842-.42-6.578-1.261-1.736-.841-3.143-2.171-4.222-3.99-1.079-1.82-1.618-4.097-1.618-6.832zM185.229.543h6.778l8.844 12.945V.543h6.842v23.399h-6.842l-8.796-12.848v12.848h-6.826V.543zM84.361 44.122h2.165c.732 0 1.247-.129 1.547-.387.3-.258.45-.606.45-1.041 0-.405-.148-.73-.446-.976-.296-.246-.816-.369-1.56-.369H84.36v2.773zm0-5.377h1.846c.663 0 1.124-.114 1.383-.341.26-.228.39-.556.39-.985 0-.399-.13-.71-.39-.934-.259-.224-.71-.336-1.354-.336H84.36v2.596zm-4.283-5.369h7.948c1.325 0 2.342.327 3.051.98.709.654 1.064 1.463 1.064 2.428 0 .809-.253 1.503-.76 2.082-.337.386-.83.69-1.48.915.987.236 1.714.642 2.179 1.218.465.576.698 1.3.698 2.17 0 .71-.166 1.348-.497 1.915a3.649 3.649 0 0 1-1.359 1.344c-.356.206-.894.355-1.611.449-.957.124-1.591.186-1.903.186h-7.33V33.376zm18.428 0h11.379v2.922h-7.123v2.176h6.607v2.791h-6.607v2.699h7.329v3.1H98.506V33.376zm17.173 0h12.906v3.38h-4.33v10.308h-4.246V36.756h-4.33v-3.38zM50.81 36.208l6.4 3.208c-1.862-3.263-5.103-5.297-9.714-5.065 1.516 3.119 4.49 5.423 9.13 5.457.016.003-5.816-3.6-5.816-3.6zm-10.065-1.335l5.545 4.41c-1.08-3.549-3.792-6.181-8.369-6.889.774 3.34 3.363 6.399 7.908 7.373.013.005-5.084-4.894-5.084-4.894zm-9.423-1.816l5.245 4.721c-.844-3.598-3.38-6.383-7.906-7.355.553 3.374 3.01 6.669 7.49 7.907.013.006-4.829-5.273-4.829-5.273zm20.99 14.197l5.152-4.624c-.773 3.585-3.252 6.324-7.758 7.213.482-3.363 2.645-6.51 7.097-7.667.015-.005-4.491 5.078-4.491 5.078zm-12.832-.966l6.459-2.861c-1.923 3.158-5.201 5.02-9.809 4.54 1.577-3.036 4.835-5.351 9.476-5.14.016 0-6.126 3.46-6.126 3.46zm-10.198-3.766l6.811-1.28c-2.317 2.586-5.871 3.533-10.323 2.22 1.957-2.54 5.61-3.964 10.135-2.896.016 0-6.623 1.956-6.623 1.956zm-7.286-8.792l6.717 2.586c-2.152-3.1-5.622-4.782-10.186-4.17 1.797 2.99 5.257 5.24 9.873 4.896.018 0-6.404-3.313-6.404-3.313z"/><path d="M62.806 38.976l1.057.937s-5.451 3.46-19.656 1.751c-9.463-1.136-15.314-4.787-15.236-4.777 4.606 1.776 12.109 4.517 20.187 4.227 8.073-.29 10.116-.576 13.648-2.138zm95.049-2.768l-6.399 3.208c1.862-3.263 5.101-5.297 9.712-5.065-1.515 3.119-4.49 5.423-9.129 5.457-.018.003 5.816-3.6 5.816-3.6zm10.063-1.335l-5.543 4.41c1.081-3.549 3.791-6.181 8.368-6.889-.774 3.34-3.364 6.399-7.908 7.373-.012.005 5.083-4.894 5.083-4.894zm9.426-1.816l-5.246 4.721c.845-3.598 3.378-6.383 7.905-7.355-.552 3.374-3.012 6.669-7.489 7.907-.013.006 4.83-5.273 4.83-5.273zm-20.992 14.197l-5.151-4.624c.772 3.585 3.25 6.324 7.758 7.213-.484-3.363-2.646-6.51-7.098-7.667-.014-.005 4.491 5.078 4.491 5.078zm12.833-.966l-6.46-2.861c1.923 3.158 5.203 5.02 9.809 4.54-1.577-3.036-4.836-5.351-9.477-5.14-.015 0 6.128 3.46 6.128 3.46zm10.198-3.766l-6.812-1.28c2.316 2.586 5.872 3.533 10.325 2.22-1.958-2.54-5.613-3.964-10.138-2.896-.015 0 6.625 1.956 6.625 1.956zm7.286-8.792l-6.719 2.586c2.152-3.1 5.622-4.782 10.186-4.17-1.794 2.99-5.255 5.24-9.872 4.896-.018 0 6.405-3.313 6.405-3.313z"/><path d="M145.858 38.976l-1.058.937s5.452 3.46 19.656 1.751c9.464-1.136 15.315-4.787 15.238-4.777-4.605 1.776-12.11 4.517-20.189 4.227-8.072-.29-10.115-.576-13.647-2.138zM.97.543h9.546l3.681 14.237L17.852.543h9.54v23.399h-5.944V6.098l-4.58 17.844h-5.381L6.915 6.098v17.844H.97V.543zM44.96 15.02l-2.593-8.412L39.8 15.02h5.158zm1.505 5.059h-8.24l-1.145 3.863h-7.412L38.497.543h7.918l8.827 23.399H47.64l-1.175-3.863z"/></g><defs><clipPath id="a"><path fill="#fff" d="M0 0h207v51H0z" transform="translate(.8)"/></clipPath></defs></svg>