<svg xmlns="http://www.w3.org/2000/svg" width="165" height="83" fill="none"><g fill="#B4BAC1" clip-path="url(#a)"><path d="M27.063 59.966a8.818 8.818 0 0 0-2.486-.339c-2.664 0-4.81.837-6.38 2.486-.324.34-.605.7-.853 1.072-1.032-1.736-2.675-3.065-4.998-3.392a8.492 8.492 0 0 0-1.676-.166c-2.484 0-4.52.74-6.072 2.18v-.216c0-.917-.673-1.627-1.544-1.627-.83 0-1.503.75-1.503 1.627v18.735c0 .919.673 1.629 1.544 1.629.87 0 1.503-.71 1.503-1.629V69.435c0-3.704 2.144-6.424 5.073-6.763l.051-.006c.189-.02.38-.032.575-.032 3.246 0 5.264 2.379 5.264 6.427v11.266c0 .918.673 1.628 1.504 1.628.87 0 1.543-.71 1.543-1.628V69.31c0-4.257 2.534-6.677 5.62-6.677 3.325 0 5.304 2.338 5.304 6.51v11.183c0 .918.672 1.628 1.543 1.628.83 0 1.504-.71 1.504-1.628V68.393c0-4.499-2.056-7.567-5.516-8.427m29.081 11.098c0 4.548-3.245 8.304-7.904 8.304-4.536 0-7.947-3.756-7.947-8.388v-.083c0-4.55 3.204-8.346 7.863-8.346 4.535 0 7.988 3.796 7.988 8.429v.084zM48.24 59.713c-6.49 0-11.234 5.174-11.234 11.267v.084c0 6.091 4.702 11.182 11.15 11.182 6.49 0 11.275-5.173 11.275-11.266v-.083c0-6.093-4.743-11.184-11.191-11.184zm28.677.266a10.525 10.525 0 0 0-2.914-.387c-3.15 0-5.23 1.019-6.687 2.395v-.396a1.6 1.6 0 0 0-1.622-1.627c-.874 0-1.581.75-1.581 1.627v18.736c0 .919.708 1.627 1.623 1.627s1.58-.708 1.58-1.627V69.395c0-4.049 2.687-6.76 6.39-6.76 3.787 0 5.89 2.503 5.89 6.51v11.182a1.6 1.6 0 0 0 1.623 1.627c.874 0 1.582-.708 1.582-1.627V68.351c0-4.32-2.1-7.478-5.884-8.372m5.894-22.164h-.021c-.224-10.014-8.27-18.085-18.254-18.308v-.02c9.984-.223 18.031-8.295 18.254-18.31h.021c.222 10.014 8.27 18.085 18.251 18.31v.022c-9.982.224-18.028 8.296-18.251 18.308v-.002zm18.677-18.317c-.001 0-.001 0 0 0 0-10.33-8.334-18.707-18.624-18.742V.754h-.127v.002C72.469.79 64.152 9.13 64.116 19.43l-.002.127h.001c.032 10.303 8.35 18.648 18.622 18.682l.127.001v-.001c10.29-.034 18.624-8.412 18.624-18.742m-2.564 56.532c0 4.382 2.621 6.093 6.075 6.093 1.247 0 2.245-.209 3.161-.585.541-.209.915-.668.915-1.252 0-.75-.624-1.376-1.373-1.376-.249 0-.832.292-1.955.292-2.163 0-3.619-.96-3.619-3.59v-12.6h5.574c.79 0 1.456-.627 1.456-1.42 0-.752-.666-1.418-1.456-1.418h-5.574v-5.092c0-.876-.749-1.627-1.623-1.627-.916 0-1.58.75-1.58 1.627V76.03zm33.299-6.593c-2.87-.876-5.534-1.669-5.534-3.714v-.082c.001-1.796 1.624-3.13 4.161-3.13 1.831 0 3.786.626 5.616 1.67.167.081.416.165.708.165.791 0 1.414-.625 1.414-1.377 0-.626-.374-1.085-.791-1.336-2.079-1.126-4.575-1.835-6.863-1.835-4.244 0-7.322 2.461-7.322 6.175v.084c0 3.964 3.744 5.133 7.114 6.093 2.828.793 5.367 1.627 5.367 3.797v.082c0 2.088-1.873 3.422-4.452 3.422-2.33 0-4.618-.793-6.823-2.294-.208-.167-.5-.25-.79-.25-.791 0-1.415.626-1.415 1.376 0 .542.292.96.582 1.168 2.33 1.67 5.45 2.713 8.279 2.713 4.285 0 7.655-2.379 7.655-6.468v-.083c0-3.88-3.577-5.174-6.906-6.176m14.769.334c.416-4.215 3.245-7.344 6.988-7.344 4.285 0 6.532 3.42 6.866 7.344h-13.854zm17.056.876c0-5.717-3.618-10.933-9.983-10.933-5.95 0-10.318 5.008-10.318 11.225v.084c0 6.676 4.825 11.224 10.733 11.224 3.661 0 6.074-1.294 8.112-3.255.333-.292.5-.667.5-1.043 0-.75-.624-1.376-1.415-1.376-.374 0-.665.166-.915.375-1.58 1.46-3.536 2.504-6.199 2.504-3.827 0-7.113-2.63-7.571-7.302h15.559c.791 0 1.497-.626 1.497-1.503M90.635 59.964c-.874 0-1.582.75-1.582 1.627v18.735a1.6 1.6 0 0 0 1.623 1.628c.915 0 1.581-.708 1.581-1.628V61.591a1.6 1.6 0 0 0-1.622-1.627zm.021-6.821a1.946 1.946 0 0 0-1.945 1.949c0 1.077.87 1.95 1.945 1.95a1.946 1.946 0 0 0 1.942-1.95c0-1.077-.87-1.95-1.942-1.95zm25.205 6.821c-.874 0-1.581.75-1.581 1.627v18.735a1.6 1.6 0 0 0 1.623 1.628c.915 0 1.58-.708 1.58-1.628V61.591a1.6 1.6 0 0 0-1.622-1.627zm.021-6.821a1.945 1.945 0 0 0-1.943 1.949c0 1.077.869 1.95 1.943 1.95a1.945 1.945 0 0 0 1.943-1.95 1.945 1.945 0 0 0-1.943-1.95z"/></g><defs><clipPath id="a"><path fill="#fff" d="M0 0h164v83H0z" transform="translate(.8)"/></clipPath></defs></svg>