<svg xmlns="http://www.w3.org/2000/svg" width="160" height="120" fill="none"><path fill="#404137" fill-rule="evenodd" d="M84.019 38.5a.502.502 0 0 0-.502.508v12.966a.344.344 0 0 1-.518.305l-2.09-1.22a.99.99 0 0 0-1.004 0L71.56 55.94a1.044 1.044 0 0 0-.501.898v9.763c0 .364.19.698.501.881l8.345 4.881a.988.988 0 0 0 1.003 0l8.345-4.881c.311-.183.501-.517.501-.881V42.263c0-.37-.199-.718-.518-.899l-4.967-2.813a.485.485 0 0 0-.25-.05V38.5zm-53.68 12.186a.934.934 0 0 0-.451.119l-8.345 4.88a1.015 1.015 0 0 0-.502.882l.017 13.101c0 .182.093.352.251.441a.482.482 0 0 0 .502 0l4.95-2.881a1.04 1.04 0 0 0 .518-.882v-6.118c0-.365.19-.7.502-.881l2.107-1.238a.978.978 0 0 1 .501-.135c.172 0 .35.043.502.136l2.107 1.237c.312.181.502.516.502.881v6.118c0 .365.207.695.518.882l4.95 2.881a.482.482 0 0 0 .502 0 .511.511 0 0 0 .25-.44l.017-13.102a1.01 1.01 0 0 0-.501-.881l-8.345-4.881a.926.926 0 0 0-.451-.119h-.1zm74.984.119a.989.989 0 0 0-.502.135l-8.344 4.881a1.017 1.017 0 0 0-.502.882v9.762c0 .367.204.7.519.881l8.277 4.78c.306.177.679.19.987.017l5.017-2.83a.513.513 0 0 0 .267-.441.5.5 0 0 0-.251-.441l-8.394-4.881a.55.55 0 0 1-.268-.458v-3.05c0-.183.112-.35.268-.441l2.608-1.526a.496.496 0 0 1 .502 0l2.609 1.526a.508.508 0 0 1 .251.44v2.407c0 .183.095.35.251.44a.492.492 0 0 0 .501 0l5-2.948a1.02 1.02 0 0 0 .502-.882v-2.355a1.02 1.02 0 0 0-.502-.882l-8.294-4.88a.983.983 0 0 0-.502-.137zm-24.95 7.288a.28.28 0 0 1 .134.033l2.86 1.678c.077.046.133.13.133.22v3.356a.261.261 0 0 1-.133.22l-2.86 1.678a.25.25 0 0 1-.25 0l-2.86-1.678a.262.262 0 0 1-.134-.22v-3.356c0-.09.056-.174.133-.22l2.86-1.678a.218.218 0 0 1 .117-.033z" clip-rule="evenodd"/><path fill="#83CD29" fill-rule="evenodd" d="M130.324 50.567c-.29 0-.571.061-.82.204l-7.876 4.61c-.51.297-.82.86-.82 1.457v9.203c0 .598.31 1.16.82 1.458l2.057 1.203c.999.5 1.368.492 1.822.492 1.48 0 2.325-.91 2.325-2.492v-9.084c0-.129-.11-.22-.234-.22h-.987c-.126 0-.234.091-.234.22v9.084c0 .701-.72 1.406-1.89.814l-2.14-1.271c-.076-.042-.134-.116-.134-.204v-9.203a.27.27 0 0 1 .134-.22l7.859-4.593a.23.23 0 0 1 .235 0l7.859 4.593a.27.27 0 0 1 .134.22v9.203a.258.258 0 0 1-.117.22l-7.876 4.594a.242.242 0 0 1-.235 0l-2.023-1.22a.208.208 0 0 0-.201 0c-.558.32-.663.358-1.187.542-.129.045-.325.116.067.339l2.642 1.576c.252.148.532.22.82.22a1.6 1.6 0 0 0 .819-.22l7.876-4.593c.51-.3.82-.86.82-1.458v-9.203c0-.598-.31-1.159-.82-1.457l-7.876-4.61a1.624 1.624 0 0 0-.819-.204zm-74.918.187a.989.989 0 0 0-.501.135l-8.345 4.865a1.044 1.044 0 0 0-.501.898v9.762c0 .365.19.699.501.882l8.345 4.88a.987.987 0 0 0 1.003 0l8.345-4.88a1.02 1.02 0 0 0 .501-.882v-9.762c0-.365-.19-.716-.501-.898l-8.345-4.865a.989.989 0 0 0-.502-.135zm86.607.05v.238h.652v1.746h.267v-1.746h.669v-.237h-1.588zm1.822 0v1.984h.251v-1.17c0-.047.002-.121 0-.22-.003-.1 0-.188 0-.237v-.051l.552 1.678h.268l.568-1.678c0 .106-.014.21-.017.305v1.373h.251v-1.983h-.368l-.568 1.678-.552-1.678h-.385zm-11.404 6.34c-2.243 0-3.579.967-3.579 2.576 0 1.745 1.326 2.224 3.478 2.44 2.576.256 2.776.639 2.776 1.153 0 .89-.701 1.27-2.358 1.27-2.081 0-2.539-.526-2.692-1.575-.018-.113-.104-.204-.217-.204h-1.02a.24.24 0 0 0-.235.238c0 1.343.721 2.932 4.164 2.932 2.493 0 3.93-.992 3.93-2.729 0-1.722-1.161-2.184-3.579-2.508-2.442-.328-2.675-.488-2.675-1.068 0-.479.197-1.119 2.007-1.119 1.616 0 2.213.353 2.458 1.458a.23.23 0 0 0 .217.186h1.02c.063 0 .124-.039.168-.085.042-.048.072-.103.066-.169-.157-1.902-1.409-2.796-3.929-2.796zm-27.124 2.322c-.034 0-.071 0-.101.016l-1.605.95a.197.197 0 0 0-.1.169v1.864a.2.2 0 0 0 .1.17l1.605.932c.06.035.125.035.184 0l1.606-.932a.2.2 0 0 0 .1-.17v-1.864a.2.2 0 0 0-.1-.17l-1.606-.949c-.03-.018-.05-.017-.083-.017z" clip-rule="evenodd"/></svg>