<svg xmlns="http://www.w3.org/2000/svg" width="160" height="120" fill="none"><path fill="#8993BE" d="M80 81.743c23.196 0 42-9.792 42-21.871C122 47.792 103.196 38 80 38s-42 9.792-42 21.872 18.804 21.871 42 21.871z"/><path fill="#232531" fill-rule="evenodd" d="M49.795 72.822l4.602-23.31h10.644c4.603.287 6.904 2.59 6.904 6.619 0 6.907-5.466 10.936-10.356 10.648H56.41l-1.15 6.043h-5.466zm7.767-10.36L59 53.828h3.74c2.013 0 3.452.863 3.452 2.59-.288 4.893-2.59 5.756-5.178 6.044h-3.452zm13.314 4.317l4.602-23.31h5.466l-1.15 6.042h5.177c4.603.288 6.33 2.59 5.754 5.468l-2.014 11.8h-5.753l2.014-10.648c.287-1.44.287-2.303-1.726-2.303H78.93l-2.589 12.95h-5.465zm17.467 6.043l4.602-23.31h10.644c4.603.287 6.904 2.59 6.904 6.619 0 6.907-5.465 10.936-10.356 10.648h-5.178l-1.15 6.043h-5.466zm7.766-10.36l1.439-8.634h3.74c2.014 0 3.452.863 3.452 2.59-.288 4.893-2.589 5.756-5.178 6.044H96.11z" clip-rule="evenodd"/></svg>