<svg xmlns="http://www.w3.org/2000/svg" width="160" height="121" fill="none"><g clip-path="url(#a)"><path fill="#000" d="M110.76 66.82c-.372-1.127-1.346-1.912-2.605-2.1-.594-.089-1.274-.051-2.079.115-1.403.29-2.443.4-3.203.421 2.867-4.844 5.198-10.368 6.54-15.569 2.17-8.408 1.01-12.239-.345-13.971-3.586-4.587-8.818-7.05-15.13-7.126-3.367-.041-6.323.624-7.865 1.103a29.267 29.267 0 0 0-4.599-.422c-3.036-.048-5.719.614-8.011 1.976a36.498 36.498 0 0 0-5.658-1.421c-5.532-.91-9.99-.201-13.252 2.105-3.95 2.792-5.78 7.643-5.441 14.418.107 2.15 1.31 8.696 3.202 14.903 1.088 3.567 2.248 6.53 3.448 8.806 1.702 3.227 3.523 5.128 5.568 5.81 1.145.383 3.227.65 5.417-1.175.277.337.648.67 1.14.981a7.573 7.573 0 0 0 2.148.907c2.747.687 5.32.515 7.515-.448.013.39.024.764.032 1.086.015.523.03 1.036.049 1.515.13 3.242.35 5.763 1.003 7.527.036.097.084.245.135.401.326.999.87 2.67 2.256 3.978 1.435 1.356 3.17 1.772 4.76 1.772.798 0 1.559-.105 2.226-.248 2.378-.51 5.08-1.287 7.033-4.072 1.848-2.632 2.746-6.597 2.908-12.845l.06-.506.038-.33.435.038.112.008c2.423.11 5.385-.404 7.204-1.25 1.437-.667 6.043-3.101 4.959-6.387z"/><path fill="#336791" d="M106.618 67.459c-7.203 1.487-7.698-.954-7.698-.954 7.605-11.294 10.784-25.63 8.041-29.139-7.485-9.571-20.44-5.044-20.657-4.927l-.07.013c-1.423-.296-3.015-.472-4.805-.501-3.259-.054-5.731.855-7.607 2.279 0 0-23.112-9.53-22.037 11.985.229 4.577 6.555 34.632 14.1 25.554 2.757-3.32 5.422-6.126 5.422-6.126 1.323.88 2.908 1.329 4.569 1.167l.129-.11c-.04.413-.022.816.052 1.293-1.944 2.174-1.373 2.555-5.259 3.356-3.932.811-1.622 2.255-.114 2.632 1.829.458 6.058 1.106 8.916-2.898l-.114.457c.761.61 1.296 3.971 1.207 7.018-.09 3.046-.15 5.138.45 6.772.6 1.633 1.198 5.31 6.307 4.214 4.268-.915 6.48-3.288 6.787-7.245.219-2.814.713-2.398.744-4.913l.396-1.19c.458-3.814.073-5.045 2.703-4.472l.639.056c1.935.088 4.468-.312 5.955-1.004 3.201-1.486 5.1-3.97 1.943-3.317h.001z"/><path fill="#fff" d="M75.175 48.262c-.65-.09-1.237-.007-1.535.218a.564.564 0 0 0-.233.375c-.037.268.15.564.266.717.326.432.802.73 1.273.795.069.01.137.014.204.014.786 0 1.5-.613 1.564-1.065.079-.566-.743-.943-1.54-1.054zm21.502.018c-.062-.444-.851-.57-1.6-.467-.748.105-1.473.443-1.412.887.048.346.672.937 1.41.937.063 0 .126-.004.19-.013.493-.069.855-.382 1.027-.563.261-.275.413-.582.385-.781z"/><path fill="#fff" d="M109.015 67.29c-.275-.831-1.159-1.099-2.628-.795-4.36.9-5.922.277-6.434-.101 3.389-5.168 6.177-11.415 7.681-17.244.713-2.76 1.107-5.325 1.139-7.415.035-2.294-.355-3.98-1.16-5.009-3.246-4.151-8.01-6.378-13.776-6.439-3.965-.044-7.314.971-7.963 1.257a19.834 19.834 0 0 0-4.481-.576c-2.976-.049-5.549.665-7.679 2.118a34.257 34.257 0 0 0-6.24-1.637c-5.055-.815-9.071-.198-11.938 1.835-3.42 2.425-5 6.76-4.694 12.886.103 2.06 1.276 8.4 3.128 14.47 2.437 7.991 5.086 12.514 7.873 13.445.326.109.702.185 1.117.185 1.017 0 2.263-.459 3.56-2.02a128.43 128.43 0 0 1 4.907-5.556c1.096.588 2.3.917 3.53.95l.009.096c-.212.253-.42.51-.622.77-.853 1.084-1.03 1.31-3.777 1.875-.78.161-2.855.59-2.885 2.045-.034 1.59 2.452 2.258 2.735 2.328.986.248 1.937.37 2.843.37 2.205 0 4.145-.726 5.696-2.129-.048 5.669.188 11.255.868 12.957.557 1.393 1.918 4.798 6.216 4.798.63 0 1.325-.074 2.088-.238 4.486-.962 6.434-2.946 7.187-7.32.403-2.339 1.095-7.921 1.42-10.916.688.214 1.572.313 2.528.312 1.993 0 4.294-.424 5.737-1.094 1.62-.753 4.545-2.602 4.015-4.208zM98.333 47.054c-.015.884-.137 1.687-.266 2.525-.138.9-.282 1.832-.318 2.963-.035 1.1.102 2.245.235 3.351.268 2.235.544 4.536-.522 6.806a8.842 8.842 0 0 1-.473-.971c-.132-.322-.42-.838-.818-1.553-1.55-2.781-5.18-9.296-3.321-11.954.553-.791 1.958-1.604 5.483-1.166zM94.06 32.078c5.166.114 9.254 2.05 12.147 5.75 2.22 2.839-.224 15.756-7.3 26.899-.07-.09-.142-.18-.214-.27l-.09-.113c1.829-3.022 1.471-6.012 1.153-8.663-.13-1.088-.254-2.115-.223-3.08.033-1.023.168-1.9.299-2.75.16-1.045.324-2.127.279-3.402.033-.133.047-.292.029-.48-.115-1.222-1.51-4.882-4.353-8.195-1.556-1.812-3.824-3.84-6.92-5.207a23.319 23.319 0 0 1 5.193-.489zM65.148 71.11c-1.43 1.72-2.416 1.39-2.74 1.281-2.115-.706-4.568-5.178-6.731-12.27-1.872-6.138-2.965-12.31-3.052-14.04-.273-5.473 1.052-9.287 3.94-11.337 4.7-3.335 12.425-1.339 15.53-.326-.044.044-.091.085-.135.13-5.095 5.15-4.974 13.948-4.961 14.486 0 .207.017.501.04.905.088 1.48.251 4.234-.185 7.353-.404 2.898.488 5.735 2.45 7.783.2.21.412.41.633.599a130.4 130.4 0 0 0-4.79 5.436zm5.444-7.27c-1.58-1.651-2.299-3.947-1.97-6.3.46-3.295.29-6.165.2-7.707a31.95 31.95 0 0 1-.032-.553c.745-.661 4.194-2.51 6.653-1.947 1.123.258 1.807 1.023 2.09 2.338 1.472 6.813.196 9.652-.83 11.934-.212.47-.412.914-.582 1.373l-.132.356c-.335.898-.646 1.734-.84 2.527-1.68-.005-3.314-.724-4.557-2.022zm.258 9.186a3.946 3.946 0 0 1-1.191-.512c.216-.102.601-.24 1.268-.378 3.23-.666 3.73-1.136 4.819-2.52.25-.317.533-.677.925-1.115.584-.655.851-.544 1.336-.343.392.162.775.655.93 1.197.073.256.155.742-.114 1.12-2.276 3.189-5.592 3.148-7.973 2.551zM87.754 88.77c-3.951.847-5.35-1.17-6.272-3.478-.596-1.49-.888-8.205-.68-15.622a.894.894 0 0 0-.039-.283 3.764 3.764 0 0 0-.11-.525c-.309-1.079-1.061-1.981-1.963-2.356-.359-.148-1.016-.42-1.807-.219.169-.695.461-1.48.778-2.33l.133-.358c.15-.403.338-.82.536-1.262 1.074-2.388 2.544-5.657.948-13.044-.597-2.767-2.593-4.118-5.62-3.804-1.813.188-3.473.92-4.3 1.34-.179.09-.342.178-.494.263.231-2.788 1.104-7.997 4.37-11.294 2.055-2.075 4.793-3.1 8.13-3.044 6.572.108 10.787 3.484 13.166 6.297 2.05 2.424 3.16 4.867 3.603 6.184-3.332-.34-5.597.319-6.746 1.962-2.498 3.575 1.367 10.514 3.225 13.848.34.611.635 1.14.727 1.364.605 1.468 1.389 2.447 1.96 3.163.176.219.346.431.475.617-1.009.291-2.821.964-2.656 4.326-.133 1.687-1.08 9.586-1.562 12.377-.635 3.687-1.99 5.06-5.802 5.878zm16.494-18.892c-1.032.48-2.758.839-4.398.916-1.812.085-2.734-.203-2.951-.38-.102-2.096.677-2.315 1.502-2.546.13-.037.256-.072.378-.115.076.062.159.123.25.183 1.456.962 4.053 1.066 7.72.308l.04-.008c-.495.463-1.341 1.084-2.541 1.642z"/></g><defs><clipPath id="a"><path fill="#fff" d="M0 0h62v64H0z" transform="translate(49 28.5)"/></clipPath></defs></svg>