<svg xmlns="http://www.w3.org/2000/svg" width="100" height="100" fill="none" viewBox="0 0 100 100"><path fill="#F72B57" d="M92.7 46.8c-1.7.7-3.6-.1-4.2-1.8-.7-1.7.1-3.6 1.8-4.3 1.7-.7 3.6.1 4.2 1.8.7 1.7-.2 3.6-1.8 4.3zM90 38c-1.7.7-3.6-.1-4.2-1.8-.7-1.7.1-3.6 1.8-4.2 1.7-.7 3.6.1 4.2 1.8.7 1.6-.1 3.5-1.8 4.2zm-5.2-9.5c-1.7.7-3.6-.1-4.2-1.8-.7-1.7.1-3.6 1.8-4.2 1.7-.7 3.6.1 4.2 1.8.6 1.6-.2 3.5-1.8 4.2zm-18.2-14c-1.7.7-3.6-.1-4.2-1.8-.7-1.7.1-3.6 1.8-4.2 1.7-.7 3.6.1 4.2 1.8.6 1.6-.2 3.5-1.8 4.2zM9.4 50.9c-1.7.7-3.6-.1-4.3-1.8-.7-1.7.1-3.6 1.8-4.2 1.7-.7 3.6.1 4.2 1.8.8 1.6 0 3.5-1.7 4.2zm9 28.1c-1.7.7-3.6-.1-4.2-1.8-.7-1.7.1-3.6 1.8-4.2 1.7-.7 3.6.1 4.3 1.8.6 1.6-.2 3.5-1.9 4.2zM52.2 9c-.3 1.8-1.9 3-3.7 2.8-1.8-.3-3-1.9-2.8-3.7.3-1.8 1.9-3 3.7-2.8 1.8.2 3 1.9 2.8 3.7zm-18.6 4.9c-.3 1.8-1.9 3-3.7 2.8-1.8-.3-3-1.9-2.8-3.7.3-1.8 1.9-3 3.7-2.8 1.8.2 3 1.9 2.8 3.7zm-15 13.5c-.3 1.8-1.9 3-3.7 2.8-1.8-.3-3-1.9-2.8-3.7.3-1.8 1.9-3 3.7-2.8 1.8.3 3 1.9 2.8 3.7zm55.1-11.3c1.1-1.4 3.2-1.6 4.6-.5 1.4 1.1 1.6 3.2.5 4.6-1.1 1.4-3.2 1.6-4.6.5-1.4-1.1-1.6-3.2-.5-4.6z"/><path fill="#132234" d="M49.9 94.5c-1.4 0-2.5-1.1-2.5-2.6 0-1.4 1.1-2.5 2.5-2.5 18.3 0 34.4-13 38.3-30.9.3-1.4 1.7-2.3 3-2 1.4.3 2.3 1.7 2 3-4.4 20.3-22.6 35-43.3 35"/><path fill="#F72B57" d="M92.8 54.7c-1.7.7-3.6-.1-4.2-1.8-.7-1.7.1-3.6 1.8-4.3 1.7-.7 3.6.1 4.2 1.8.7 1.7-.1 3.6-1.8 4.3z"/><path fill="#132234" fill-rule="evenodd" d="M32.617 36.597a2.5 2.5 0 0 1 2.069-1.097H66.35a2.5 2.5 0 0 1 2.074 1.105l4.65 6.91a2.5 2.5 0 0 1-.08 2.904l-20.502 27.09a2.5 2.5 0 0 1-3.988-.003L35.953 56.882l-.004-.006-7.94-10.453a2.5 2.5 0 0 1-.078-2.915l4.686-6.911zM36.01 40.5l-2.934 4.328 6.862 9.035 10.564 13.992L67.93 44.826 65.02 40.5H36.01z" clip-rule="evenodd"/></svg>