<svg xmlns="http://www.w3.org/2000/svg" width="160" height="121" fill="none"><g clip-path="url(#a)"><path fill="#646464" d="M67.147 62.68c0-4.014-1.163-6.074-3.489-6.187a6.647 6.647 0 0 0-2.708.438c-.702.247-1.174.492-1.423.739v9.58c1.488.918 2.81 1.345 3.962 1.278 2.438-.16 3.658-2.107 3.658-5.849zm2.87.166c0 2.039-.486 3.731-1.464 5.077-1.089 1.523-2.599 2.308-4.53 2.35-1.454.046-2.953-.402-4.496-1.343v8.707l-2.496-.876V57.436c.41-.494.937-.919 1.576-1.279 1.485-.851 3.29-1.29 5.414-1.31l.035.034c1.942-.024 3.438.76 4.489 2.35.98 1.46 1.472 3.33 1.472 5.615zM85.27 68.56c0 2.735-.279 4.628-.836 5.681-.56 1.053-1.624 1.894-3.197 2.52-1.275.494-2.654.763-4.134.809l-.412-1.547c1.504-.202 2.564-.403 3.178-.605 1.21-.403 2.04-1.02 2.496-1.848.365-.674.545-1.96.545-3.865v-.64a12.995 12.995 0 0 1-5.364 1.142c-1.23 0-2.313-.378-3.247-1.142-1.048-.83-1.573-1.882-1.573-3.159V55.687l2.496-.84v10.285c0 1.099.36 1.945 1.081 2.538.72.594 1.655.88 2.799.857 1.144-.024 2.37-.46 3.672-1.31v-12h2.495V68.56zm9.741 1.58a10.23 10.23 0 0 1-.822.034c-1.411 0-2.512-.33-3.298-.994-.784-.663-1.177-1.579-1.177-2.748v-9.67h-1.709v-1.545h1.71v-4.102l2.492-.873v4.975h2.804v1.545h-2.804v9.603c0 .922.251 1.574.754 1.956.43.314 1.116.494 2.05.54v1.278zm15.11-.202h-2.495V60.46c0-.965-.23-1.795-.686-2.488-.527-.784-1.258-1.176-2.198-1.176-1.144 0-2.574.593-4.292 1.78v11.36h-2.495v-22.65l2.495-.774V56.83c1.595-1.142 3.337-1.714 5.229-1.714 1.322 0 2.392.438 3.211 1.31.822.874 1.231 1.962 1.231 3.262v10.25zm13.264-7.645c0-1.542-.298-2.815-.89-3.823-.705-1.227-1.799-1.875-3.279-1.942-2.736.156-4.102 2.084-4.102 5.781 0 1.695.284 3.11.858 4.247.732 1.448 1.829 2.163 3.293 2.138 2.746-.021 4.12-2.154 4.12-6.401zm2.733.016c0 2.195-.571 4.021-1.709 5.48-1.254 1.633-2.984 2.452-5.193 2.452-2.19 0-3.897-.819-5.128-2.452-1.117-1.459-1.674-3.285-1.674-5.48 0-2.063.603-3.798 1.811-5.212 1.275-1.498 2.951-2.25 5.023-2.25 2.072 0 3.76.752 5.06 2.25 1.207 1.413 1.81 3.149 1.81 5.212zm14.307 7.629h-2.496V59.923c0-1.098-.335-1.955-1.007-2.573-.672-.615-1.568-.913-2.684-.89-1.185.022-2.313.404-3.383 1.142v12.336h-2.495V57.299c1.436-1.029 2.757-1.7 3.964-2.015 1.138-.292 2.143-.438 3.009-.438.592 0 1.149.057 1.673.17.981.223 1.778.636 2.392 1.243.686.672 1.027 1.478 1.027 2.42v11.259z"/><path fill="url(#b)" d="M32.384 47.375c-1.284.006-2.51.114-3.589.302-3.178.552-3.755 1.709-3.755 3.841v2.816h7.51v.94H22.221c-2.183 0-4.094 1.29-4.692 3.745-.69 2.815-.72 4.572 0 7.51.534 2.188 1.809 3.747 3.992 3.747h2.582V66.9c0-2.44 2.145-4.59 4.692-4.59h7.502a3.753 3.753 0 0 0 3.755-3.755v-7.037c0-2.003-1.717-3.507-3.755-3.842a23.802 23.802 0 0 0-3.913-.3zm-4.062 2.265a1.408 1.408 0 1 1 0 2.816c-.778 0-1.41-.627-1.41-1.403 0-.78.632-1.413 1.41-1.413z"/><path fill="url(#c)" d="M40.989 55.273v3.281c0 2.544-2.192 4.685-4.692 4.685h-7.502c-2.055 0-3.755 1.73-3.755 3.755v7.036c0 2.003 1.77 3.181 3.755 3.755 2.377.688 4.657.813 7.502 0 1.89-.538 3.755-1.622 3.755-3.755v-2.816H32.55v-.938h11.257c2.183 0 2.996-1.498 3.756-3.747.784-2.314.75-4.54 0-7.51-.54-2.138-1.57-3.746-3.756-3.746H40.99zm-4.22 17.819c.779 0 1.41.627 1.41 1.404 0 .779-.631 1.412-1.41 1.412a1.408 1.408 0 1 1 0-2.816z"/><path fill="#646464" d="M145.284 53.028h.437v-2.7h1.036v-.322h-2.51v.322h1.036v2.7h.001zm1.861 0h.374v-2.466l.811 2.466h.416l.846-2.457v2.457H150v-3.021h-.54l-.924 2.588-.787-2.588h-.604v3.021z"/><path fill="url(#d)" d="M42.7 82.569c0 1.06-4.506 1.92-10.065 1.92-5.559 0-10.065-.86-10.065-1.92s4.506-1.92 10.065-1.92c5.559 0 10.065.86 10.065 1.92z" opacity=".44"/></g><defs><linearGradient id="b" x1="16.26" x2="33.34" y1="48.26" y2="63.05" gradientUnits="userSpaceOnUse"><stop stop-color="#5A9FD4"/><stop offset="1" stop-color="#306998"/></linearGradient><linearGradient id="c" x1="40.08" x2="34" y1="71.82" y2="63.16" gradientUnits="userSpaceOnUse"><stop stop-color="#FFD43B"/><stop offset="1" stop-color="#FFE873"/></linearGradient><radialGradient id="d" cx="0" cy="0" r="1" gradientTransform="matrix(0 -1.91981 8.57868 0 32.632 82.525)" gradientUnits="userSpaceOnUse"><stop stop-color="#B8B8B8" stop-opacity=".5"/><stop offset="1" stop-color="#7F7F7F" stop-opacity="0"/></radialGradient><clipPath id="a"><path fill="#fff" d="M0 0h133v38H0z" transform="translate(17 46.5)"/></clipPath></defs></svg>