<svg xmlns="http://www.w3.org/2000/svg" width="160" height="120" fill="none"><path fill="#61DAFB" d="M111 60.006c0-4.127-5.143-8.04-13.03-10.465 1.82-8.078 1.012-14.504-2.552-16.562-.822-.482-1.782-.71-2.831-.71V35.1c.581 0 1.049.115 1.44.33 1.72.991 2.465 4.763 1.884 9.615a39.286 39.286 0 0 1-.645 3.734c-2.477-.61-5.181-1.08-8.025-1.384-1.706-2.35-3.475-4.484-5.257-6.35 4.12-3.85 7.987-5.957 10.616-5.957v-2.833c-3.476 0-8.025 2.49-12.625 6.808-4.6-4.293-9.15-6.757-12.625-6.757v2.832c2.616 0 6.496 2.096 10.615 5.919a59.943 59.943 0 0 0-5.219 6.338c-2.856.304-5.56.774-8.037 1.397a38.498 38.498 0 0 1-.658-3.684c-.594-4.851.14-8.623 1.846-9.627.379-.228.871-.33 1.453-.33V32.32c-1.062 0-2.022.228-2.856.711-3.551 2.058-4.348 8.471-2.515 16.524C54.119 51.992 49 55.89 49 60.006c0 4.128 5.144 8.04 13.03 10.466-1.82 8.077-1.012 14.504 2.552 16.561.822.483 1.782.712 2.844.712 3.475 0 8.025-2.49 12.625-6.808 4.6 4.293 9.15 6.757 12.624 6.757 1.062 0 2.023-.229 2.857-.711 3.55-2.058 4.347-8.472 2.514-16.524C105.882 68.033 111 64.121 111 60.006zm-16.454-8.471a57.42 57.42 0 0 1-1.706 5.017 60.3 60.3 0 0 0-1.656-3.048 68.893 68.893 0 0 0-1.82-2.972c1.795.266 3.526.597 5.182 1.003zm-5.788 13.526a67.73 67.73 0 0 1-3.046 4.852 65.436 65.436 0 0 1-5.712.254c-1.908 0-3.817-.089-5.687-.241a70.056 70.056 0 0 1-3.058-4.827 66.235 66.235 0 0 1-2.629-5.055 66.312 66.312 0 0 1 2.616-5.067 67.711 67.711 0 0 1 3.046-4.852A65.436 65.436 0 0 1 80 49.871c1.908 0 3.817.09 5.687.241a70.058 70.058 0 0 1 3.058 4.827 66.235 66.235 0 0 1 2.629 5.055 71.181 71.181 0 0 1-2.616 5.067zm4.082-1.65a54.643 54.643 0 0 1 1.744 5.054c-1.656.406-3.4.75-5.207 1.016a70.248 70.248 0 0 0 1.82-3.01 72.359 72.359 0 0 0 1.643-3.06zM80.025 76.96a52.296 52.296 0 0 1-3.513-4.063c1.137.05 2.3.089 3.475.089a63.42 63.42 0 0 0 3.514-.09 49.523 49.523 0 0 1-3.476 4.065zm-9.402-7.48a56.742 56.742 0 0 1-5.181-1.003 57.396 57.396 0 0 1 1.706-5.017 60.139 60.139 0 0 0 1.655 3.048 84.309 84.309 0 0 0 1.82 2.972zm9.34-26.43a52.255 52.255 0 0 1 3.512 4.064A79.05 79.05 0 0 0 80 47.025c-1.188 0-2.363.026-3.513.09a49.468 49.468 0 0 1 3.475-4.065zm-9.353 7.48a70.142 70.142 0 0 0-3.462 6.059 54.586 54.586 0 0 1-1.744-5.055 60.75 60.75 0 0 1 5.206-1.003zM59.173 66.434C54.7 64.515 51.806 62 51.806 60.006c0-1.994 2.894-4.521 7.367-6.426 1.087-.47 2.275-.89 3.5-1.283a61.346 61.346 0 0 0 2.844 7.735 60.34 60.34 0 0 0-2.805 7.696 38.234 38.234 0 0 1-3.539-1.295zm6.8 18.15c-1.72-.991-2.465-4.763-1.884-9.615a39.28 39.28 0 0 1 .645-3.734c2.477.61 5.181 1.08 8.025 1.384 1.706 2.35 3.475 4.484 5.257 6.35-4.12 3.849-7.987 5.957-10.616 5.957-.568-.013-1.049-.127-1.428-.343zm29.976-9.679c.594 4.852-.14 8.624-1.846 9.627-.379.229-.871.33-1.453.33-2.616 0-6.496-2.095-10.615-5.918a59.932 59.932 0 0 0 5.219-6.337c2.856-.305 5.56-.775 8.037-1.398.291 1.283.519 2.515.658 3.696zm4.865-8.471c-1.087.47-2.275.889-3.5 1.283a61.187 61.187 0 0 0-2.844-7.735 60.332 60.332 0 0 0 2.806-7.697 40.13 40.13 0 0 1 3.551 1.296c4.473 1.918 7.367 4.432 7.367 6.426-.012 1.994-2.906 4.522-7.38 6.427z"/><path fill="#61DAFB" d="M79.987 65.81c3.19 0 5.776-2.598 5.776-5.804 0-3.205-2.586-5.804-5.776-5.804s-5.775 2.599-5.775 5.804c0 3.206 2.585 5.805 5.775 5.805z"/></svg>