<svg xmlns="http://www.w3.org/2000/svg" width="160" height="120" fill="none"><g clip-path="url(#a)"><path fill="#912626" d="M111.783 76.075c-3.681 1.942-22.753 9.879-26.813 12.02-4.06 2.143-6.316 2.123-9.523.57-3.208-1.551-23.503-9.848-27.159-11.617-1.827-.883-2.788-1.63-2.788-2.334v-7.057s26.422-5.821 30.688-7.37c4.265-1.55 5.745-1.605 9.375-.26 3.63 1.347 25.335 5.31 28.923 6.64l-.002 6.957c.001.698-.827 1.463-2.701 2.451z"/><path fill="#C6302B" d="M111.782 69.06c-3.681 1.941-22.752 9.878-26.812 12.02-4.06 2.142-6.316 2.121-9.523.57-3.208-1.551-23.502-9.85-27.158-11.617-3.656-1.769-3.732-2.986-.141-4.409 3.59-1.423 23.774-9.438 28.04-10.986 4.265-1.549 5.745-1.605 9.375-.259s22.587 8.982 26.174 10.312c3.589 1.331 3.726 2.427.045 4.369z"/><path fill="#912626" d="M111.783 64.656C108.102 66.6 89.03 74.535 84.97 76.678c-4.06 2.142-6.316 2.12-9.523.569-3.208-1.551-23.503-9.849-27.159-11.617-1.827-.884-2.788-1.63-2.788-2.334v-7.058s26.422-5.821 30.688-7.37c4.265-1.549 5.745-1.605 9.375-.259s25.336 5.308 28.923 6.638l-.002 6.959c.001.697-.827 1.462-2.701 2.45z"/><path fill="#C6302B" d="M111.782 57.641c-3.681 1.942-22.752 9.878-26.812 12.02-4.06 2.143-6.316 2.122-9.523.57-3.208-1.55-23.502-9.849-27.158-11.617-3.656-1.768-3.732-2.985-.141-4.409 3.59-1.423 23.774-9.437 28.04-10.986 4.265-1.548 5.745-1.605 9.375-.259s22.587 8.982 26.174 10.312c3.589 1.331 3.726 2.427.045 4.37z"/><path fill="#912626" d="M111.783 52.814c-3.681 1.942-22.753 9.879-26.813 12.022-4.06 2.142-6.316 2.12-9.523.569-3.208-1.551-23.503-9.85-27.159-11.617-1.827-.884-2.788-1.63-2.788-2.334v-7.058s26.422-5.82 30.688-7.37c4.265-1.549 5.745-1.604 9.375-.259 3.63 1.346 25.336 5.309 28.923 6.639l-.002 6.958c.001.697-.827 1.462-2.701 2.45z"/><path fill="#C6302B" d="M111.782 45.8c-3.682 1.94-22.752 9.877-26.813 12.02-4.06 2.141-6.315 2.12-9.522.57-3.208-1.553-23.502-9.85-27.158-11.618-3.656-1.768-3.732-2.986-.141-4.409 3.59-1.423 23.774-9.437 28.04-10.986 4.265-1.549 5.745-1.604 9.375-.258S108.15 40.1 111.737 41.43c3.588 1.33 3.726 2.426.045 4.368z"/><path fill="#fff" d="M88.423 38.934l-5.931.623-1.328 3.233-2.144-3.608-6.85-.623 5.111-1.865-1.533-2.863 4.784 1.894 4.51-1.495-1.218 2.96 4.599 1.744zM80.81 54.62l-11.07-4.647 15.862-2.464-4.792 7.11zM65.463 40.73c4.683 0 8.478 1.49 8.478 3.326 0 1.837-3.796 3.326-8.478 3.326s-8.477-1.49-8.477-3.326c0-1.837 3.795-3.326 8.477-3.326z"/><path fill="#621B1C" d="M95.433 39.818l9.387 3.754-9.38 3.75-.007-7.505"/><path fill="#9A2928" d="M85.047 43.975l10.386-4.157.008 7.505-1.019.403-9.375-3.75z"/></g><defs><clipPath id="a"><path fill="#fff" d="M0 0h69v60H0z" transform="translate(45.5 30)"/></clipPath></defs></svg>