<svg xmlns="http://www.w3.org/2000/svg" width="160" height="121" fill="none"><path fill="#83CD29" d="M104.375 33.625a27.704 27.704 0 0 1-3.179 5.686A29.754 29.754 0 0 0 80.083 30.5c-16.375 0-29.85 13.592-29.85 30.113 0 8.241 3.349 16.13 9.272 21.818l1.101.984a29.72 29.72 0 0 0 19.23 7.085c15.568 0 28.656-12.295 29.765-27.965.814-7.671-1.419-17.373-5.226-28.91zM63.747 82.603a2.55 2.55 0 0 1-1.985.953c-1.404 0-2.551-1.164-2.551-2.578s1.155-2.578 2.55-2.578c.582 0 1.156.203 1.606.578a2.6 2.6 0 0 1 .38 3.625zm40.504-9.015c-7.366 9.897-23.098 6.562-33.185 7.038 0 0-1.791.11-3.59.406 0 0 .675-.289 1.55-.624 7.08-2.484 10.43-2.969 14.733-5.195 8.102-4.156 16.111-13.248 17.778-22.708-3.086 9.1-12.436 16.92-20.957 20.099-5.839 2.171-16.384 4.28-16.384 4.28l-.426-.226c-7.18-3.523-7.397-19.2 5.652-24.262 5.715-2.219 11.18-1 17.353-2.485 6.59-1.577 14.212-6.561 17.313-13.06 3.474 10.397 7.653 26.676.163 36.737z"/></svg>