<svg xmlns="http://www.w3.org/2000/svg" width="68" height="68" fill="none" viewBox="0 0 68 68"><path fill="#132234" d="M57.936 27.336c-.204 0-.476-.068-.68-.136l-12.172-5.712c-.748-.34-1.088-1.292-.748-2.04l5.032-10.744c.204-.34.476-.68.884-.816.408-.136.816-.136 1.156.068l12.172 5.712c.748.34 1.088 1.292.748 2.04l-5.032 10.744c-.204.34-.476.68-.884.816-.068.068-.272.068-.476.068zm-10.064-8.024l9.384 4.42 3.74-7.956-9.384-4.42-3.74 7.956z"/><path fill="#132234" d="M60.452 21.963c-.204 0-.408-.068-.68-.136L47.6 16.115c-.748-.34-1.088-1.292-.748-2.04.34-.748 1.292-1.088 2.04-.748l12.24 5.712c.748.34 1.088 1.292.748 2.04-.272.612-.816.884-1.428.884z"/><path fill="#132234" d="M37.672 54.672c-.204 0-.476-.068-.68-.136-.476-.204-.816-.68-.884-1.224l-1.156-13.26c0-.272 0-.544.136-.816L49.436 8.772c.204-.34.476-.68.884-.816.408-.136.816-.136 1.156.068l12.172 5.712c.748.34 1.088 1.292.748 2.04L50.048 46.24c-.136.272-.272.476-.544.612L38.556 54.4c-.272.204-.544.272-.884.272zm.408-14.552l.952 10.268 8.5-5.848 13.532-28.696-9.384-4.42-13.6 28.696z"/><path fill="#132234" d="M48.688 47.124c-.204 0-.476-.068-.68-.136l-12.172-5.712c-.748-.34-1.088-1.292-.748-2.04.34-.748 1.292-1.088 2.04-.748L49.3 44.2c.748.34 1.088 1.292.748 2.04-.272.544-.816.884-1.36.884z"/><path fill="#F72B57" d="M38.964 17.611a1.973 1.973 0 0 1-1.972 1.972 1.973 1.973 0 0 1-1.972-1.972c0-1.088.884-1.972 1.972-1.972s1.972.884 1.972 1.972zM7.752 30.871a1.973 1.973 0 0 1-1.972 1.972 1.973 1.973 0 0 1-1.972-1.972c0-1.088.884-1.972 1.972-1.972s1.972.884 1.972 1.972zm2.72-6.052A1.973 1.973 0 0 1 8.5 26.791a1.973 1.973 0 0 1-1.972-1.972c0-1.088.884-1.972 1.972-1.972s1.972.884 1.972 1.972zm5.848-5.984a1.973 1.973 0 0 1-1.972 1.972 1.973 1.973 0 0 1-1.972-1.972c0-1.088.884-1.972 1.972-1.972s1.972.884 1.972 1.972zm9.384-3.672a1.973 1.973 0 0 1-1.972 1.972 1.973 1.973 0 0 1-1.972-1.972c0-1.088.884-1.972 1.972-1.972 1.156 0 1.972.884 1.972 1.972z"/><path fill="#132234" d="M26.656 59.84c-12.784 0-23.188-10.404-23.188-23.188 0-.816.68-1.564 1.564-1.564s1.564.68 1.564 1.564c0 11.084 9.044 20.128 20.128 20.128 2.244 0 4.352-.34 6.46-1.088.816-.272 1.7.136 1.972.952s-.136 1.7-.952 1.972c-2.516.816-5.032 1.224-7.548 1.224"/></svg>