<svg xmlns="http://www.w3.org/2000/svg" width="160" height="120" fill="none"><path fill="#F05138" d="M60.684 51.64a47.188 47.188 0 0 0-.014-.995c-.02-.723-.06-1.453-.184-2.168a7.524 7.524 0 0 0-.652-2.06 6.795 6.795 0 0 0-2.908-3.03 6.831 6.831 0 0 0-1.978-.679c-.688-.129-1.388-.171-2.082-.19-.32-.01-.638-.014-.956-.016-.379-.002-.757-.002-1.136-.002H38.912c-.38 0-.757 0-1.135.002a31.138 31.138 0 0 0-1.479.035 11.58 11.58 0 0 0-1.56.171 6.66 6.66 0 0 0-3.663 1.954 6.92 6.92 0 0 0-1.223 1.754 7.509 7.509 0 0 0-.652 2.06c-.124.716-.165 1.446-.183 2.168-.01.333-.013.665-.015.996-.002.395-.002.789-.002 1.183v12.354c0 .394 0 .788.002 1.182.003.332.006.664.015.996.019.723.06 1.453.183 2.167.117.717.337 1.412.652 2.062a6.79 6.79 0 0 0 2.909 3.03 6.842 6.842 0 0 0 1.978.679c.686.128 1.387.17 2.081.19.32.009.638.013.957.015.377.003.756.002 1.135.002h11.862c.377 0 .757 0 1.135-.002.319-.002.637-.006.956-.015.694-.02 1.395-.062 2.082-.19a6.83 6.83 0 0 0 1.978-.68 6.793 6.793 0 0 0 2.909-3.029c.322-.66.526-1.335.652-2.06.123-.716.164-1.445.183-2.168.008-.332.012-.664.014-.996.003-.394.002-.788.002-1.183V52.823c0-.394 0-.788-.002-1.183z"/><path fill="#fff" d="M54.108 62.87l-.002-.003c.034-.124.07-.248.101-.375 1.315-5.457-1.895-11.908-7.326-15.305 2.38 3.36 3.432 7.43 2.497 10.99a9.444 9.444 0 0 1-.294.919 7.183 7.183 0 0 0-.475-.293s-5.403-3.474-11.259-9.62c-.153-.16 3.123 4.877 6.841 8.968-1.752-1.023-6.634-4.723-9.724-7.669.38.66.831 1.295 1.328 1.907 2.58 3.408 5.947 7.614 9.979 10.844-2.833 1.805-6.837 1.945-10.822.002a16.231 16.231 0 0 1-2.771-1.722c1.782 2.948 4.378 5.267 7.448 6.651 3.772 1.688 7.523 1.574 10.316.028l-.002.004c.013-.01.029-.018.042-.027a7.76 7.76 0 0 0 .34-.198c1.342-.726 3.993-1.462 5.416 1.421.349.706 1.09-3.033-1.633-6.522z"/><path fill="#000" d="M72.71 63.916c.249 2.289 2.345 3.79 5.257 3.79 2.766 0 4.761-1.5 4.761-3.578 0-1.79-1.208-2.881-3.99-3.609l-2.693-.713c-3.873-1-5.62-2.82-5.62-5.822 0-3.7 3.102-6.263 7.513-6.263 4.28 0 7.323 2.578 7.425 6.293h-2.839c-.218-2.275-1.995-3.67-4.659-3.67-2.636 0-4.47 1.41-4.47 3.472 0 1.607 1.136 2.563 3.931 3.306l2.243.607c4.339 1.107 6.114 2.866 6.114 6.035 0 4.034-3.072 6.565-7.964 6.565-4.542 0-7.643-2.517-7.876-6.414h2.868zm31.008 6.05h-2.854l-3.334-12.1h-.058l-3.32 12.1H91.3L87.078 54.12h2.766l2.941 12.721h.058l3.32-12.721h2.68l3.348 12.721h.058l2.941-12.721h2.737l-4.208 15.845zm6.05-20.107c0-.955.758-1.728 1.675-1.728.932 0 1.689.773 1.689 1.728 0 .956-.757 1.744-1.689 1.744a1.649 1.649 0 0 1-1.181-.514 1.786 1.786 0 0 1-.493-1.23h-.001zm.292 4.26h2.78v15.846h-2.78V54.12zM131 56.456V54.12h-2.94v-3.79h-2.767v3.79h-5.316v-1.395c.015-1.41.538-2.002 1.791-2.002.407 0 .815.046 1.15.107v-2.276a9.32 9.32 0 0 0-1.47-.121c-2.971 0-4.223 1.29-4.223 4.246v1.44H115.1v2.336h2.125v13.51h2.767v-13.51h5.301v9.355c0 3.063 1.121 4.245 4.033 4.245.626 0 1.339-.045 1.66-.12v-2.366c-.348.045-.698.07-1.049.076-1.296 0-1.877-.637-1.877-2.062v-9.128H131z"/></svg>