<svg xmlns="http://www.w3.org/2000/svg" width="100" height="100" fill="none" viewBox="0 0 100 100"><path fill="#132234" d="M60.8 88.9H7.2c-1.3 0-2.4-1.1-2.4-2.4v-46c0-1.3 1.1-2.4 2.4-2.4h18.5c1.3 0 2.4 1.1 2.4 2.4 0 1.3-1.1 2.4-2.4 2.4H9.6v41.2h48.8V70.6c0-1.3 1.1-2.4 2.4-2.4 1.3 0 2.4 1.1 2.4 2.4v15.9c0 1.3-1.1 2.4-2.4 2.4z"/><path fill="#132234" d="M92.5 73H25.7c-1.3 0-2.4-1.1-2.4-2.4V13.3c0-1.3 1.1-2.4 2.4-2.4h66.9c1.3 0 2.4 1.1 2.4 2.4v57.4c-.1 1.2-1.1 2.3-2.5 2.3zm-64.4-4.8h62.1V15.6H28.1v52.6z"/><path fill="#F72B57" d="M63.8 40.5c0 1.7-1.4 3-3 3-1.7 0-3-1.4-3-3 0-1.7 1.4-3 3-3s3 1.3 3 3zm-11.3 0c0 1.7-1.4 3-3 3-1.7 0-3-1.4-3-3 0-1.7 1.4-3 3-3 1.7 0 3 1.3 3 3zm-11.3 0c0 1.7-1.4 3-3 3-1.7 0-3-1.4-3-3 0-1.7 1.4-3 3-3 1.7 0 3 1.3 3 3zm22.6 9.4c0 1.7-1.4 3-3 3-1.7 0-3-1.4-3-3 0-1.7 1.4-3 3-3 1.6-.1 3 1.3 3 3zm0 9.3c0 1.7-1.4 3-3 3-1.7 0-3-1.4-3-3 0-1.7 1.4-3 3-3s3 1.3 3 3z"/></svg>