<svg xmlns="http://www.w3.org/2000/svg" width="174" height="87" fill="none"><g clip-path="url(#a)"><path fill="#B4BAC1" d="M169.507 69.723a.85.85 0 0 1-.006.11.269.269 0 0 1-.016.072.09.09 0 0 1-.029.042.054.054 0 0 1-.035.013h-.726v2.307a.066.066 0 0 1-.013.04.101.101 0 0 1-.049.028.396.396 0 0 1-.091.018 1.265 1.265 0 0 1-.142.006 1.39 1.39 0 0 1-.142-.006.385.385 0 0 1-.091-.018c-.023-.006-.038-.015-.047-.028a.053.053 0 0 1-.016-.04V69.96h-.723a.061.061 0 0 1-.04-.013.135.135 0 0 1-.027-.042.688.688 0 0 1-.022-.182.716.716 0 0 1 .022-.186.101.101 0 0 1 .027-.04.062.062 0 0 1 .04-.013h2.04c.013 0 .024.004.035.013.011.007.022.02.029.04a.288.288 0 0 1 .016.074c.004.03.006.068.006.112zm3.717 2.544a.082.082 0 0 1-.011.04c-.009.013-.025.022-.047.028a.33.33 0 0 1-.084.018 1.213 1.213 0 0 1-.358-.018.081.081 0 0 1-.044-.028.06.06 0 0 1-.014-.04v-2.329h-.004l-.839 2.327a.126.126 0 0 1-.029.048.143.143 0 0 1-.055.029.296.296 0 0 1-.087.015c-.038.002-.08.002-.131.002-.051 0-.093 0-.129-.004a.565.565 0 0 1-.088-.018.142.142 0 0 1-.056-.03.092.092 0 0 1-.027-.042l-.81-2.327h-.004v2.33a.082.082 0 0 1-.011.039c-.009.013-.025.022-.047.028a.367.367 0 0 1-.087.018 1.11 1.11 0 0 1-.135.006c-.053 0-.098-.002-.133-.006a.379.379 0 0 1-.087-.018c-.022-.006-.037-.015-.044-.028a.06.06 0 0 1-.013-.04v-2.55a.24.24 0 0 1 .06-.174.225.225 0 0 1 .162-.06h.384c.068 0 .128.007.177.018a.325.325 0 0 1 .218.156.85.85 0 0 1 .062.156l.626 1.706h.009l.648-1.702a.984.984 0 0 1 .064-.155.468.468 0 0 1 .08-.106.284.284 0 0 1 .109-.055.583.583 0 0 1 .146-.017h.396c.04 0 .075.004.104.015a.182.182 0 0 1 .113.119.273.273 0 0 1 .016.099v2.55zM31.187 59.896s-5.458-.652-9.225-1.719c-3.625-.961-13.763-3.497-15.52-16.193-.45-3.098-.58-5.898-.616-8.397-.117-8.203 1.53-13.278 4.406-16.73.163-.269 2.48-3.24 8.15-5.451 4.545-2.222 24.887-3.984 41.693-4.838 11.079-.562 24.748-.679 39.494-.37 11.745.247 24.162.677 36.566 1.966 20.137 2.234 23.831 5.382 26.812 9.043 1.638 2.314 2.546 5.284 3.401 10.175.446 3.988.328 7.977-.193 12.062-1.545 12.6-4.651 18.983-35.319 21.411-2.639.178-5.52.5-8.601.575 0 0-12.768.698-28.011.922-11.053.163-23.425-.028-33.153-.38-4.122-.151-9.136-.502-9.136-.502s-9.98 12.786-12.013 15.535c-2.031 2.741-3.883 4.814-6.573 3.984-1.607-.496-2.071-2.127-2.162-4.467-.078-1.983 0-16.626 0-16.626z"/><path fill="#B4BAC1" d="M47.296 65.951c3.125.187 7.738.402 12.055.582 10.189.421 23.148.656 34.724.476 16.266.084 35.587-1.514 38.353-1.719 33.028-1.17 38.08-12.468 38.173-30.54.06-11.57-1.769-17.096-4.502-20.525-3.118-4.289-6.985-7.977-28.077-10.61-12.993-1.522-25.998-2.038-38.3-2.336-15.445-.374-29.765-.25-41.372.397-17.6.986-38.91 3.03-43.676 5.624-5.938 2.583-8.368 6.06-8.54 6.374-3.014 4.037-4.87 10.026-4.752 19.63.036 2.923.093 6.233.56 9.86 1.83 14.863 12.743 18.164 16.541 19.295 9.197 2.818 25.725 3.308 28.813 3.492z"/><path fill="#fff" d="M63.462 47.49l-9.217-22.708a4.688 4.688 0 0 1-.288-.928 4.81 4.81 0 0 1-.105-1.01c0-.964.34-1.765 1.017-2.404.677-.639 1.53-.96 2.553-.96.748 0 1.36.223 1.838.664.477.441.914 1.192 1.316 2.252l6.253 16.703 6.036-16.457c.401-1.183.857-2.006 1.37-2.468.51-.46 1.19-.693 2.033-.693 1.038 0 1.853.279 2.45.836.593.558.893 1.317.893 2.283 0 .38-.04.773-.116 1.172a6.23 6.23 0 0 1-.342 1.173l-8.925 22.28c-.402 1.005-.873 1.727-1.412 2.162-.54.435-1.23.652-2.076.652-.788 0-1.433-.197-1.94-.593-.506-.392-.952-1.044-1.338-1.956zm24.28-1.986c0 1.543-.255 2.687-.766 3.427-.508.74-1.294 1.108-2.353 1.108-1.072 0-1.871-.373-2.393-1.12-.524-.746-.786-1.883-.786-3.415V32.979c0-1.533.26-2.667.777-3.407.515-.74 1.317-1.11 2.402-1.11 1.059 0 1.845.37 2.353 1.11.51.74.766 1.874.766 3.407v12.525zm9.538-16.867a7.608 7.608 0 0 1 2.417-1.416 8.43 8.43 0 0 1 2.855-.472c2.892 0 5.329 1.133 7.316 3.396 1.985 2.265 2.979 5.095 2.979 8.489 0 3.2-1.017 5.933-3.052 8.198-2.033 2.266-4.449 3.398-7.243 3.398-1.108 0-2.125-.193-3.05-.575a6.51 6.51 0 0 1-2.389-1.683c-.415.71-.888 1.244-1.42 1.6a3.133 3.133 0 0 1-1.776.535c-1.134 0-1.976-.397-2.522-1.191-.546-.793-.819-2.005-.819-3.633V24.308c0-1.642.273-2.86.82-3.652.545-.795 1.387-1.19 2.52-1.19 1.135 0 1.98.395 2.534 1.19.552.792.83 2.01.83 3.652v4.33zm-.51 9.876c0 1.815.446 3.275 1.342 4.375.895 1.102 2.049 1.653 3.465 1.653 1.399 0 2.551-.56 3.452-1.675.903-1.115 1.356-2.566 1.356-4.353 0-1.815-.448-3.288-1.345-4.419-.894-1.13-2.049-1.697-3.463-1.697-1.416 0-2.57.562-3.465 1.686-.896 1.124-1.343 2.6-1.343 4.43zm23.604 1.813c.153 1.24 1.052 2.21 1.937 2.906.886.696 2.056 1.043 3.508 1.043 1.26 0 2.661-.358 4.204-1.073 1.543-.718 2.493-1.076 2.854-1.076.788 0 1.432.24 1.929.718.5.476.748 1.09.748 1.84 0 1.42-1.003 2.7-3.01 3.837-2.006 1.139-4.366 1.71-7.076 1.71-3.308 0-6.069-1.114-8.282-3.337-2.215-2.224-3.321-5.014-3.321-8.368 0-3.37 1.075-6.18 3.228-8.431 2.151-2.25 4.832-3.376 8.042-3.376 3.099 0 5.694 1.058 7.782 3.171 2.089 2.114 3.135 4.7 3.135 7.756 0 .996-.229 1.69-.684 2.087-.457.396-1.336.593-2.637.593h-12.357zm-.269-3.87h9.849c-.091-1.23-.593-2.509-1.507-3.334-.913-.823-2-1.238-3.263-1.238-1.248 0-2.446.39-3.343 1.17-.899.781-1.476 2.083-1.736 3.402zm17.81 8.729v-13.32c0-1.629.273-2.836.819-3.624.548-.786 1.387-1.179 2.522-1.179.679 0 1.281.174 1.807.523.526.349.99.88 1.389 1.591.693-.74 1.425-1.297 2.202-1.672.775-.378 1.556-.565 2.344-.565.928 0 1.727.325 2.398.975.67.65 1.007 1.42 1.007 2.31 0 1.325-1.232 2.434-3.695 3.323-.886.316-1.55.575-1.992.781-.845.397-1.405.839-1.682 1.324-.278.485-.415 1.365-.415 2.636v6.897c0 1.629-.278 2.84-.83 3.633-.553.795-1.397 1.19-2.533 1.19-1.135 0-1.974-.395-2.522-1.19-.546-.792-.819-2.004-.819-3.633zM81.24 22.923c0-.95.347-1.762 1.04-2.44a3.43 3.43 0 0 1 2.49-1.02c.956 0 1.775.341 2.455 1.02.679.678 1.019 1.49 1.019 2.44 0 .962-.336 1.776-1.01 2.441-.673.668-1.494 1.001-2.464 1.001-.995 0-1.832-.333-2.51-1-.68-.666-1.02-1.48-1.02-2.442zM41.737 33.191a.73.73 0 0 1-.73-.687c-.122-2.454-1.292-3.657-3.68-3.784a.725.725 0 0 1-.691-.762.725.725 0 0 1 .768-.682c3.152.166 4.903 1.951 5.063 5.156.02.4-.29.74-.692.76h-.038z"/><path fill="#fff" d="M45.491 34.435h-.018a.727.727 0 0 1-.714-.74c.057-2.47-.657-4.473-2.182-6.12-1.519-1.641-3.603-2.537-6.376-2.739a.724.724 0 0 1-.674-.772c.029-.4.38-.698.781-.67 3.119.226 5.59 1.304 7.347 3.205 1.767 1.907 2.63 4.305 2.566 7.13a.728.728 0 0 1-.73.706z"/><path fill="#fff" d="M49.334 35.922a.726.726 0 0 1-.73-.718c-.036-4.423-1.323-7.8-3.938-10.326-2.584-2.487-5.85-3.764-9.705-3.79a.729.729 0 0 1-.726-.73.727.727 0 0 1 .73-.717h.007c4.247.028 7.852 1.444 10.715 4.203 2.868 2.768 4.342 6.588 4.377 11.35a.723.723 0 0 1-.723.728h-.007zM37.51 42.157s1.028.09 1.583-.588l1.079-1.343c.52-.666 1.778-1.091 3.008-.413.686.384 1.913 1.135 2.683 1.694.82.595 2.491 1.972 2.495 1.976.797.665.982 1.642.44 2.672 0 .004-.007.015-.007.021-.557.973-1.303 1.886-2.246 2.736-.009.004-.009.01-.02.015-.773.639-1.534 1.001-2.282 1.091a1.49 1.49 0 0 1-.333.02 3.069 3.069 0 0 1-.968-.147l-.024-.035c-1.152-.32-3.072-1.124-6.273-2.87-2.08-1.134-3.81-2.291-5.27-3.444a27.499 27.499 0 0 1-2.368-2.076l-.08-.08-.08-.078c-.03-.027-.053-.053-.08-.081a27.433 27.433 0 0 1-2.182-2.421c-1.166-1.445-2.335-3.155-3.48-5.212-1.765-3.163-2.578-5.064-2.902-6.201l-.035-.024a2.917 2.917 0 0 1-.15-.96 1.328 1.328 0 0 1 .02-.329c.09-.737.456-1.49 1.102-2.256.006-.01.01-.01.015-.02.862-.933 1.783-1.67 2.768-2.222l.02-.004c1.044-.536 2.031-.356 2.702.435.006.004 1.398 1.657 1.998 2.465.568.761 1.327 1.975 1.713 2.654.686 1.218.258 2.463-.417 2.974l-1.359 1.07c-.683.546-.595 1.562-.595 1.562s2.01 7.523 9.526 9.42z"/><path fill="#B4BAC1" d="M69.04 75.178c-.74 0-1.313.274-1.717.823-.406.548-.608 1.315-.608 2.296 0 2.041.775 3.062 2.324 3.062.65 0 1.439-.16 2.362-.483v1.629c-.759.314-1.607.47-2.546.47-1.347 0-2.377-.404-3.09-1.212-.712-.808-1.07-1.967-1.07-3.48 0-.952.176-1.784.526-2.502a3.775 3.775 0 0 1 1.51-1.646c.657-.382 1.425-.573 2.308-.573.9 0 1.803.215 2.71.645l-.632 1.579a10.553 10.553 0 0 0-1.045-.426 3.16 3.16 0 0 0-1.033-.182zm10.614 4.159c0 1.14-.304 2.03-.912 2.674-.609.643-1.455.966-2.54.966-.68 0-1.278-.148-1.798-.444a2.938 2.938 0 0 1-1.196-1.266c-.28-.551-.42-1.195-.42-1.93 0-1.144.302-2.033.906-2.667.603-.637 1.454-.953 2.546-.953.68 0 1.28.147 1.8.44.517.291.917.71 1.197 1.257.277.547.417 1.188.417 1.923zm-4.895 0c0 .694.113 1.216.344 1.572.231.355.606.533 1.126.533.515 0 .883-.178 1.11-.529.226-.353.34-.878.34-1.576 0-.694-.114-1.212-.343-1.559-.228-.346-.601-.52-1.12-.52-.516 0-.888.172-1.115.516-.229.345-.342.865-.342 1.563zm13.026 3.513h-1.931v-4.09c0-.505-.091-.885-.273-1.137-.182-.252-.47-.377-.868-.377-.54 0-.93.177-1.172.533-.24.358-.36.95-.36 1.776v3.295H81.25v-7.003h1.474l.26.896h.108c.216-.338.51-.593.89-.766a3.056 3.056 0 0 1 1.288-.261c.824 0 1.45.221 1.876.66.426.441.639 1.078.639 1.908v4.566zm8.525 0h-1.932v-4.09c0-.505-.09-.885-.273-1.137-.182-.252-.47-.377-.868-.377-.54 0-.93.177-1.172.533-.24.358-.36.95-.36 1.776v3.295h-1.93v-7.003h1.473l.26.896h.109c.215-.338.513-.593.89-.766a3.056 3.056 0 0 1 1.287-.261c.824 0 1.45.221 1.876.66.426.441.64 1.078.64 1.908v4.566zm5.192.125c-1.141 0-2.03-.312-2.672-.933-.642-.621-.964-1.504-.964-2.643 0-1.175.298-2.081.89-2.722.593-.641 1.414-.962 2.462-.962.999 0 1.778.284 2.335.848.557.562.837 1.34.837 2.335v.927h-4.566c.02.542.184.965.488 1.27.304.306.731.457 1.279.457.426 0 .83-.044 1.21-.132a5.891 5.891 0 0 0 1.19-.419v1.48c-.338.166-.7.29-1.084.37a6.901 6.901 0 0 1-1.405.124zm-.273-5.9c-.408 0-.73.129-.961.385-.233.257-.366.622-.4 1.094h2.711c-.009-.472-.133-.837-.373-1.094-.242-.256-.566-.386-.977-.386zm7.607 5.9c-2.204 0-3.305-1.197-3.305-3.59 0-1.19.3-2.098.899-2.726.6-.63 1.459-.944 2.577-.944.819 0 1.554.16 2.205.477l-.571 1.477a9.734 9.734 0 0 0-.848-.296 2.78 2.78 0 0 0-.786-.117c-1.005 0-1.507.707-1.507 2.116 0 1.37.502 2.055 1.507 2.055.371 0 .715-.048 1.033-.147a3.71 3.71 0 0 0 .95-.459v1.633a3.169 3.169 0 0 1-.946.409 5.47 5.47 0 0 1-1.208.112zm6.776-1.522c.338 0 .744-.072 1.217-.22v1.423c-.482.213-1.073.319-1.774.319-.772 0-1.336-.194-1.687-.58-.353-.386-.531-.964-.531-1.736v-3.376h-.923v-.808l1.063-.639.557-1.477h1.237v1.49h1.982v1.434h-1.982v3.376c0 .27.075.472.231.601.153.13.357.193.61.193zm2.375.5c0-.351.096-.617.284-.795.191-.18.469-.27.831-.27.35 0 .621.093.814.277.191.182.289.445.289.788 0 .33-.098.59-.293.78-.193.19-.464.285-.81.285-.356 0-.629-.093-.824-.28-.193-.186-.291-.447-.291-.785zm9.424.897h-1.932v-9.156h5.308v1.591h-3.376v2.36h3.141v1.585h-3.141v3.62zm8.986-7.134c.262 0 .48.02.653.057l-.146 1.79a2.24 2.24 0 0 0-.571-.063c-.615 0-1.096.156-1.441.47-.344.314-.515.75-.515 1.315v3.565h-1.931v-7.003h1.463l.284 1.177h.096a2.62 2.62 0 0 1 .89-.948c.373-.24.779-.36 1.218-.36zm5.143 7.259c-1.141 0-2.031-.312-2.672-.933-.642-.621-.964-1.504-.964-2.643 0-1.175.298-2.081.89-2.722.593-.641 1.414-.962 2.462-.962.999 0 1.778.284 2.335.848.557.562.837 1.34.837 2.335v.927h-4.566c.02.542.184.965.488 1.27.305.306.731.457 1.279.457.426 0 .83-.044 1.21-.132a5.891 5.891 0 0 0 1.19-.419v1.48c-.338.166-.7.29-1.084.37a6.901 6.901 0 0 1-1.405.124zm-.273-5.9c-.408 0-.73.129-.961.385-.233.257-.366.622-.399 1.094h2.71c-.009-.472-.133-.837-.373-1.094-.242-.256-.566-.386-.977-.386zm7.935 5.9c-1.141 0-2.031-.312-2.672-.933-.642-.621-.964-1.504-.964-2.643 0-1.175.298-2.081.891-2.722.592-.641 1.414-.962 2.461-.962.999 0 1.778.284 2.335.848.558.562.837 1.34.837 2.335v.927h-4.566c.02.542.184.965.489 1.27.304.306.73.457 1.278.457.426 0 .83-.044 1.21-.132a5.87 5.87 0 0 0 1.19-.419v1.48c-.338.166-.699.29-1.084.37a6.901 6.901 0 0 1-1.405.124zm-.273-5.9c-.408 0-.73.129-.961.385-.233.257-.366.622-.399 1.094h2.71c-.009-.472-.133-.837-.373-1.094-.242-.256-.566-.386-.977-.386zm4.733 5.772h1.934v-9.741h-1.934v9.741zm2.943-7h2.116l1.336 3.94c.113.343.191.747.233 1.215h.04a5.24 5.24 0 0 1 .271-1.214l1.312-3.94h2.071l-2.997 7.898c-.273.728-.666 1.277-1.174 1.64-.508.364-1.103.544-1.782.544a4.53 4.53 0 0 1-.982-.106v-1.516c.231.054.484.08.76.08.341 0 .641-.103.896-.309.256-.206.455-.518.597-.935l.116-.345-2.813-6.952zm8.12 6.106c0-.351.095-.617.284-.795.191-.18.468-.27.83-.27.351 0 .621.093.815.277.19.182.288.445.288.788 0 .33-.098.59-.293.78-.193.19-.464.285-.81.285-.355 0-.628-.093-.824-.28-.193-.186-.29-.447-.29-.785z"/></g><defs><clipPath id="a"><path fill="#fff" d="M0 0h173v86H0z" transform="translate(.8 .5)"/></clipPath></defs></svg>