<svg xmlns="http://www.w3.org/2000/svg" width="114" height="101" fill="none"><g fill="#B4BAC1" clip-path="url(#a)"><path d="M3.96 85.586l3.797 9.666 3.672-9.666h3.796l-5.88 14.561h-3.26L0 85.586h3.96zm12.461 3.154c.66-1.245 1.547-2.157 2.62-2.697a7.436 7.436 0 0 1 3.363-.809c1.63 0 2.991.436 4.105 1.328 1.114.871 1.857 1.888 2.228 3.09.392 1.245.599 2.303.599 3.174a8.89 8.89 0 0 1-.99 4.128c-.496.975-1.156 1.763-1.96 2.323-.805.56-1.568.913-2.27 1.058-.701.124-1.279.207-1.712.207-1.155 0-2.187-.228-3.053-.663a6.455 6.455 0 0 1-2.166-1.764 7.533 7.533 0 0 1-1.3-2.447 9.228 9.228 0 0 1-.433-2.8c0-1.535.33-2.884.97-4.128zm2.91 5.808c.143.54.35 1.016.618 1.41.268.394.619.726 1.031.954a2.89 2.89 0 0 0 1.424.353h.186c.577 0 1.052-.145 1.444-.456a4.255 4.255 0 0 0 1.031-1.245c.248-.477.433-.975.537-1.493.061-.374.103-.685.103-.954 0-.104 0-.208-.021-.29 0-1.1-.227-2.013-.68-2.76-.455-.746-.93-1.203-1.445-1.41-.474-.187-.825-.27-1.093-.249h-.083c-.846 0-1.547.311-2.104.913a3.982 3.982 0 0 0-.928 1.68 7.062 7.062 0 0 0-.248 1.825c0 .602.083 1.183.227 1.722zm12.789-5.809a5.297 5.297 0 0 1 1.92-2.22c.824-.54 1.588-.892 2.31-1.058.66-.166 1.196-.228 1.609-.228h.124c.701 0 1.526.145 2.475.436v-5.663h3.693v20.162h-3.404l-.144-1.12c-.351.394-.805.725-1.362 1.016-.557.29-1.217.436-1.98.436-.99 0-1.878-.208-2.641-.644a6.055 6.055 0 0 1-1.919-1.7c-.515-.706-.907-1.535-1.176-2.448a10.396 10.396 0 0 1-.412-2.904c-.02-1.556.289-2.904.908-4.066zm2.91 5.724c.123.56.33 1.038.598 1.452a3.16 3.16 0 0 0 1.031.996c.413.249.908.373 1.465.373.454 0 .928-.124 1.403-.373.474-.249.825-.54 1.031-.892v-7.198c-.784-.29-1.465-.435-2.022-.435-1.031 0-1.877.332-2.516 1.016-.62.664-.99 1.328-1.094 1.97a6.62 6.62 0 0 0-.123 1.1c0 .083 0 .166.02.228 0 .623.062 1.203.206 1.763zm11.779-.643c.33-.58.763-1.058 1.3-1.452a6.508 6.508 0 0 1 1.712-.912 8.498 8.498 0 0 1 1.67-.415c.29-.042 1.28-.166 3.013-.374v-.207c0-.809-.207-1.39-.62-1.722-.412-.332-.969-.518-1.711-.518-.723 0-1.424.166-2.084.477-.66.311-1.155.622-1.506.913l-1.238-2.635c.413-.415 1.197-.83 2.352-1.203 1.197-.394 2.228-.58 3.094-.58.929 0 1.733.145 2.414.435.68.29 1.259.684 1.712 1.203.454.519.784 1.1.99 1.784.207.684.31 1.39.31 2.157v9.376h-3.445l-.145-1.1c-.392.436-.907.789-1.526 1.058a5.43 5.43 0 0 1-2.042.394 5.057 5.057 0 0 1-1.775-.311 4.75 4.75 0 0 1-1.526-.912 4.5 4.5 0 0 1-1.073-1.452 4.577 4.577 0 0 1-.413-1.95c.042-.788.207-1.473.537-2.054zm3.672 3.132c.35.29.846.436 1.506.436.474 0 .949-.104 1.403-.311.454-.207.846-.456 1.155-.768v-2.966a84.206 84.206 0 0 0-2.434.311c-.805.166-1.362.436-1.671.83-.31.394-.475.83-.475 1.286-.02.498.145.871.516 1.182zm9.737-11.366h1.919v-.788c0-1.41.289-2.53.866-3.36.557-.85 1.217-1.348 1.98-1.535.723-.187 1.362-.29 1.92-.311.907 0 1.65.083 2.248.249.598.166.949.29 1.052.352l-.433 3.112a4.76 4.76 0 0 0-.702-.25c-.35-.103-.825-.165-1.402-.165-.516 0-.95.145-1.3.456-.35.311-.536.81-.536 1.535v.685h3.135v3.028h-3.094v11.554h-3.734V88.594h-1.919v-3.008zm10.418 3.154c.66-1.245 1.547-2.157 2.62-2.697a7.435 7.435 0 0 1 3.363-.809c1.63 0 2.991.436 4.105 1.328 1.114.871 1.857 1.888 2.228 3.09.392 1.245.598 2.303.598 3.174a8.89 8.89 0 0 1-.99 4.128c-.495.975-1.155 1.763-1.96 2.323-.804.56-1.568.913-2.269 1.058-.701.124-1.28.207-1.712.207-1.156 0-2.187-.228-3.053-.663a6.456 6.456 0 0 1-2.167-1.764 7.535 7.535 0 0 1-1.3-2.447 9.228 9.228 0 0 1-.433-2.8c.021-1.535.33-2.884.97-4.128zm2.93 5.808c.144.54.35 1.016.618 1.41.269.394.62.726 1.032.954.413.229.887.353 1.423.353h.186c.578 0 1.052-.145 1.444-.456a4.256 4.256 0 0 0 1.032-1.245 4.99 4.99 0 0 0 .536-1.493c.062-.374.103-.685.103-.954 0-.104 0-.208-.02-.29 0-1.1-.227-2.013-.681-2.76-.454-.746-.929-1.203-1.444-1.41-.475-.187-.826-.27-1.094-.249h-.082c-.846 0-1.547.311-2.105.913a3.981 3.981 0 0 0-.928 1.68 7.062 7.062 0 0 0-.247 1.825c0 .602.082 1.183.227 1.722zm12.151-8.961H89.1l.186 1.162a6.792 6.792 0 0 1 1.96-1.12 6.36 6.36 0 0 1 2.207-.395c1.155 0 2.166.27 2.97.789.826.518 1.403 1.306 1.733 2.323.33 1.016.495 2.095.495 3.215v8.629h-3.734v-8.318c0-1.12-.227-1.97-.68-2.572-.454-.602-1.094-.913-1.94-.913-.577 0-1.114.145-1.609.457a7.221 7.221 0 0 0-1.279.995v10.33h-3.734V85.587h.042zm15.658 4.023c.35-.954.825-1.742 1.444-2.385a6.463 6.463 0 0 1 2.145-1.493c.805-.353 1.671-.52 2.6-.52 1.629 0 2.95.457 3.981 1.35 1.032.912 1.712 1.97 2.001 3.214.31 1.203.454 2.323.454 3.36v.664h-9.386c.082 1.224.453 2.116 1.134 2.655.681.54 1.568.81 2.641.81.949 0 1.795-.146 2.517-.457.722-.29 1.217-.58 1.485-.85l.99 3.049a4.2 4.2 0 0 1-1.258.684c-.248.125-.846.27-1.774.457-.929.207-1.733.311-2.476.311a7.846 7.846 0 0 1-2.702-.457 5.917 5.917 0 0 1-2.249-1.41 6.97 6.97 0 0 1-1.527-2.365c-.371-.954-.557-2.074-.557-3.402.021-1.182.186-2.281.537-3.215zm8.829 1.514c-.062-.83-.289-1.451-.722-1.908-.412-.435-.804-.726-1.196-.83-.372-.103-.619-.165-.764-.165-.639 0-1.258.248-1.836.726-.577.477-.907 1.203-1.01 2.177h5.528zM72.761 3.943c-6.395.913-11.346 6.908-11.47 14.209 8.85 1.639 15.534 7.613 15.534 18.274 0 10.288-8.5 18.606-19.123 18.606-10.563.021-19.124-9.313-19.124-21.406 0-16.677 14.73-30.512 33.358-30.077A34.706 34.706 0 0 0 57.702.5C38.516.5 22.94 16.14 22.94 35.451c0 19.312 15.576 34.952 34.762 34.952 19.185 0 34.76-15.64 34.76-34.952a34.97 34.97 0 0 0-19.7-31.508z"/></g><defs><clipPath id="a"><path fill="#fff" d="M0 0h114v100H0z" transform="translate(0 .5)"/></clipPath></defs></svg>